<?xml version="1.0" encoding="UTF-8" standalone="no"?>
<!-- Created with Inkscape (http://www.inkscape.org/) -->

<svg
   version="1.1"
   id="svg2"
   width="220"
   height="300"
   viewBox="0 0 754.35999 1384.1333"
   sodipodi:docname="smoking lion vertical - yellow.eps"
   xmlns:inkscape="http://www.inkscape.org/namespaces/inkscape"
   xmlns:sodipodi="http://sodipodi.sourceforge.net/DTD/sodipodi-0.dtd"
   xmlns="http://www.w3.org/2000/svg"
   xmlns:svg="http://www.w3.org/2000/svg">
  <defs
     id="defs6">
    <clipPath
       clipPathUnits="userSpaceOnUse"
       id="clipPath48">
      <path
         d="m 559.09,4363.2 h 4385.07 v 5939.71 H 559.09 Z"
         id="path46" />
    </clipPath>
  </defs>
  <sodipodi:namedview
     id="namedview4"
     pagecolor="#ffffff"
     bordercolor="#000000"
     borderopacity="0.25"
     inkscape:showpageshadow="2"
     inkscape:pageopacity="0.0"
     inkscape:pagecheckerboard="0"
     inkscape:deskcolor="#d1d1d1" />
  <g
     id="g8"
     inkscape:groupmode="layer"
     inkscape:label="ink_ext_XXXXXX"
     transform="matrix(1.3333333,0,0,-1.3333333,0,1384.1333)">
    <g
       id="g10"
       transform="scale(0.1)">
      <path
         d="m 2105.36,4024.18 c 13.81,-3.31 26.63,-10.37 38.48,-21.22 11.83,-10.85 21.69,-22.85 29.59,-36 7.89,-13.17 13.64,-26.32 17.26,-39.46 3.61,-13.16 4.77,-23.68 3.46,-31.57 -1.33,-7.89 -4.12,-12.33 -8.39,-13.32 -4.29,-0.98 -10.03,-0.16 -17.26,2.47 -7.25,2.62 -15.63,6.24 -25.16,10.85 -9.54,4.59 -20.22,8.22 -32.06,10.85 -23.03,5.26 -50.65,10.02 -82.86,14.31 -32.23,4.27 -67.08,7.89 -104.57,10.85 -37.49,2.96 -77.11,5.25 -118.87,6.9 -41.77,1.63 -84.02,2.13 -126.76,1.48 -1.33,-21.7 -2.81,-49.17 -4.44,-82.37 -1.65,-33.21 -3.63,-69.55 -5.92,-109 -2.32,-39.46 -4.44,-80.74 -6.41,-123.81 -1.97,-43.08 -3.63,-85.33 -4.94,-126.76 -1.32,-41.43 -2.31,-80.89 -2.96,-118.38 -0.66,-37.49 -0.66,-70.04 0,-97.66 0.65,-38.81 4.1,-71.2 10.36,-97.17 6.24,-25.99 11.18,-46.85 14.8,-62.64 3.61,-15.79 4.27,-27.12 1.97,-34.03 -2.31,-6.91 -11.34,-10.36 -27.13,-10.36 -23.02,-0.65 -43.08,7.73 -60.17,25.15 -17.11,17.44 -31.41,41.27 -42.91,71.52 -11.52,30.24 -20.57,65.61 -27.13,106.05 -6.58,40.44 -11.52,83.52 -14.8,129.23 -3.3,45.7 -5.27,92.73 -5.92,141.07 -0.66,48.33 -0.49,95.52 0.49,141.56 0.99,46.02 2.63,89.77 4.93,131.2 2.3,41.43 4.45,77.59 6.42,108.51 -46.04,-3.94 -89.43,-9.54 -130.21,-16.77 -40.78,-7.24 -76.95,-16.27 -108.52,-27.13 -31.57,-10.85 -57.05,-23.67 -76.45,-38.47 -19.39,-14.8 -30.73,-32.06 -34.03,-51.79 -1.32,-5.92 -3.46,-10.7 -6.42,-14.3 -2.95,-3.62 -6.07,-5.77 -9.37,-6.42 -3.28,-0.66 -6.07,0.33 -8.38,2.96 -2.3,2.63 -2.79,7.56 -1.48,14.8 5.92,35.52 20.22,66.74 42.91,93.72 22.69,26.96 50.97,50.14 84.84,69.54 33.88,19.39 72.5,35.52 115.91,48.34 43.4,12.83 89.11,22.84 137.12,30.09 0,6.56 0.49,12.33 1.48,17.26 0.98,4.93 3.28,9.2 6.9,12.83 3.61,3.6 8.88,6.41 15.79,8.38 6.9,1.97 16.6,2.96 29.1,2.96 11.84,0 23.67,-2.64 35.51,-7.89 11.84,-5.27 22.35,-11.84 31.57,-19.73 45.38,3.28 90.42,4.76 135.15,4.44 44.71,-0.34 87.46,-1.82 128.24,-4.44 40.77,-2.64 78.26,-6.26 112.46,-10.85 34.19,-4.61 63.78,-9.87 88.78,-15.78"
         style="fill:#fcca20;fill-opacity:1;fill-rule:nonzero;stroke:none"
         id="path12" />
      <path
         d="m 2171.45,3090.96 c 0,-28.93 1.14,-51.94 3.45,-69.05 2.3,-17.1 4.77,-30.73 7.4,-40.94 2.62,-10.19 5.09,-17.59 7.4,-22.2 2.29,-4.59 3.45,-8.87 3.45,-12.82 0,-9.2 -7.73,-15.61 -23.18,-19.24 -15.46,-3.6 -32.56,-2.12 -51.3,4.44 -18.74,6.58 -35.85,19.24 -51.29,37.99 -15.46,18.74 -23.19,45.87 -23.19,81.38 0,35.51 1.64,73.81 4.93,114.92 3.29,41.1 6.91,80.56 10.86,118.38 3.94,37.81 7.55,71.52 10.85,101.11 3.28,29.6 4.93,50.31 4.93,62.16 0,11.83 -1.97,21.7 -5.92,29.59 -3.94,7.89 -8.55,14.45 -13.81,19.73 -5.92,5.91 -12.17,10.51 -18.74,13.81 -11.84,-51.96 -22.04,-100.96 -30.58,-146.99 -3.95,-19.72 -7.57,-39.95 -10.85,-60.67 -3.3,-20.71 -6.41,-40.78 -9.38,-60.17 -2.95,-19.41 -5.27,-37.34 -6.9,-53.77 -1.65,-16.44 -2.47,-30.26 -2.47,-41.43 0,-6.58 -2.63,-11.51 -7.89,-14.79 0.65,-5.28 -2.14,-8.73 -8.38,-10.36 -6.26,-1.63 -17.27,-2.47 -33.05,-2.47 -28.29,0 -50.98,10.02 -68.07,30.09 -17.11,20.05 -30.25,46.52 -39.46,79.41 -9.21,32.88 -14.96,70.53 -17.26,112.95 -2.31,42.42 -2.64,86.15 -0.99,131.2 1.64,45.04 4.94,89.44 9.87,133.18 4.93,43.73 9.86,83.51 14.79,119.36 4.94,35.84 9.21,65.93 12.83,90.27 3.61,24.32 5.42,39.45 5.42,45.38 0,3.94 -0.49,8.87 -1.48,14.79 -0.98,5.92 -0.98,11.67 0,17.27 0.99,5.58 3.61,10.51 7.9,14.79 4.27,4.27 11.34,6.41 21.21,6.41 6.56,0 15.93,-0.98 28.11,-2.96 12.16,-1.97 23.83,-5.26 35.02,-9.86 11.18,-4.61 21.04,-10.7 29.6,-18.25 8.54,-7.57 12.82,-16.94 12.82,-28.12 0,-7.24 -1.48,-20.56 -4.44,-39.95 -2.96,-19.4 -6.75,-42.91 -11.34,-70.53 -4.61,-27.62 -9.54,-58.37 -14.8,-92.24 -5.27,-33.88 -10.2,-69.05 -14.8,-105.55 -4.61,-36.5 -8.38,-73.49 -11.34,-110.98 -2.96,-37.48 -4.44,-73.66 -4.44,-108.51 0,-24.34 1.63,-46.04 4.93,-65.11 3.28,-19.08 7.55,-35.85 12.82,-50.31 3.29,17.76 7.4,38.31 12.33,61.66 4.94,23.33 10.69,47.34 17.27,72.01 6.57,24.66 13.32,48.98 20.22,73 6.91,24 13.81,45.53 20.72,64.61 6.9,19.07 13.47,34.36 19.73,45.87 6.24,11.5 11.99,17.27 17.26,17.27 8.54,0 21.04,-1.65 37.49,-4.94 16.43,-3.29 32.88,-8.87 49.32,-16.77 16.44,-7.89 30.59,-18.58 42.42,-32.06 11.84,-13.48 17.76,-30.08 17.76,-49.81 0,-20.4 -0.99,-45.87 -2.96,-76.46 -1.97,-30.58 -3.95,-62.48 -5.92,-95.68 -1.97,-33.22 -3.95,-65.78 -5.92,-97.66 -1.97,-31.91 -2.96,-59.35 -2.96,-82.38"
         style="fill:#fcca20;fill-opacity:1;fill-rule:nonzero;stroke:none"
         id="path14" />
      <path
         d="m 2484.16,3596.04 c -13.16,0 -25,-4.61 -35.51,-13.81 -10.53,-9.22 -19.73,-21.38 -27.62,-36.5 -7.89,-15.13 -14.47,-32.55 -19.73,-52.28 -5.27,-19.73 -9.22,-40.45 -11.84,-62.15 21.04,-9.22 39.12,-11.35 54.26,-6.41 15.12,4.93 27.62,13.46 37.48,25.65 9.87,12.16 17.1,26.63 21.71,43.4 4.59,16.77 6.9,32.71 6.9,47.84 0,15.12 -2.14,27.95 -6.41,38.48 -4.29,10.51 -10.7,15.78 -19.24,15.78 z m 185.46,-174.6 c 1.97,4.59 4.27,7.72 6.91,9.37 2.62,1.63 5.25,1.97 7.89,0.98 2.62,-0.98 4.59,-3.12 5.92,-6.41 1.31,-3.3 0.98,-7.57 -0.99,-12.83 -1.33,-3.29 -3.95,-12 -7.89,-26.13 -3.94,-14.15 -9.71,-30.93 -17.26,-50.32 -7.57,-19.4 -17.11,-39.95 -28.61,-61.65 -11.52,-21.71 -25.16,-41.77 -40.94,-60.18 -15.79,-18.42 -34.03,-33.54 -54.75,-45.37 -20.72,-11.84 -43.9,-17.76 -69.55,-17.76 -34.2,0 -64.95,6.91 -92.24,20.72 -27.29,13.8 -50.3,31.56 -69.04,53.26 -18.75,21.71 -33.06,45.54 -42.92,71.53 -9.86,25.97 -14.79,51.45 -14.79,76.45 0,32.21 3.6,63.29 10.84,93.22 7.23,29.92 16.11,57.37 26.64,82.37 10.51,24.99 21.86,46.69 34.03,65.11 12.17,18.4 23.19,32.22 33.05,41.43 9.86,8.54 22.69,14.95 38.47,19.24 15.79,4.27 31.73,6.57 47.85,6.9 16.1,0.32 31.4,-0.49 45.87,-2.46 14.46,-1.98 25.65,-4.94 33.54,-8.88 15.12,-7.25 27.45,-21.21 36.99,-41.93 9.53,-20.71 14.31,-44.88 14.31,-72.5 0,-51.97 -10.85,-91.25 -32.56,-117.89 -21.7,-26.63 -48.67,-39.95 -80.89,-39.95 -11.84,0 -24.17,1.31 -36.99,3.94 -12.82,2.63 -24.51,5.59 -35.02,8.88 -1.97,-24.33 0,-48.33 5.92,-72.01 5.92,-23.68 13.96,-44.73 24.17,-63.14 10.19,-18.41 22.02,-33.38 35.51,-44.88 13.47,-11.51 27.13,-17.26 40.94,-17.26 21.04,0 39.78,4.76 56.23,14.3 16.43,9.52 31.07,21.54 43.9,36.01 12.82,14.46 23.67,30.24 32.55,47.35 8.88,17.09 16.43,33.37 22.69,48.83 6.24,15.44 10.85,28.93 13.81,40.44 2.96,11.5 5.09,18.58 6.41,21.22"
         style="fill:#fcca20;fill-opacity:1;fill-rule:nonzero;stroke:none"
         id="path16" />
      <path
         d="m 1013.73,3612.35 c 33.85,0 63.99,-8.21 90.39,-24.65 26.39,-16.44 49.06,-36.86 67.99,-61.26 18.91,-24.42 34.1,-51.05 45.57,-79.93 11.43,-28.9 18.91,-55.54 22.41,-79.94 3.48,-24.42 2.98,-44.82 -1.49,-61.26 -4.49,-16.43 -12.71,-24.65 -24.66,-24.65 -8.96,0 -20.42,4.98 -34.36,14.94 -13.97,9.95 -30.63,20.66 -50.05,32.12 -19.42,11.45 -41.35,22.16 -65.75,32.12 -24.42,9.95 -51.54,14.95 -81.425,14.95 -44.824,0 -92.886,-10.72 -144.179,-32.12 -51.313,-21.43 -101.11,-48.07 -149.41,-79.94 -48.328,-31.89 -93.379,-66.25 -135.215,-103.09 -41.836,-36.86 -75.219,-71.23 -100.106,-103.09 -24.906,-31.89 -39.847,-58.53 -44.824,-79.94 -4.992,-21.43 5.465,-32.12 31.375,-32.12 16.926,0 39.598,5.23 67.984,15.69 28.391,10.46 62.239,22.15 101.602,35.11 39.336,12.93 83.902,24.65 133.723,35.11 49.793,10.46 105.566,15.69 167.332,15.69 80.683,0 144.923,-8.73 192.743,-26.15 47.81,-17.43 84.65,-39.59 110.56,-66.49 25.89,-26.89 42.82,-56.54 50.8,-88.89 7.96,-32.38 11.95,-63.02 11.95,-91.89 0,-68.73 -12.46,-134.24 -37.35,-196.48 -24.9,-62.25 -58.04,-119.78 -99.35,-172.57 -41.35,-52.8 -88.67,-100.35 -141.943,-142.68 -53.297,-42.35 -108.578,-78.21 -165.848,-107.58 -57.289,-29.36 -114.554,-52.03 -171.82,-67.97 -57.289,-15.93 -110.328,-23.92 -159.121,-23.92 -23.906,0 -51.059,5.49 -81.426,16.45 -30.402,10.97 -58.531,27.63 -84.418,50.04 -25.914,22.42 -47.812,50.29 -65.742,83.68 -17.93,33.35 -26.891,72.46 -26.891,117.29 0,23.9 4.989,41.08 14.938,51.54 9.945,10.46 20.918,15.17 32.871,14.19 11.953,-1 22.902,-6.97 32.871,-17.93 9.945,-10.97 14.941,-25.91 14.941,-44.82 0,-16.95 4.715,-31.14 14.188,-42.58 9.457,-11.46 21.156,-20.43 35.113,-26.89 13.942,-6.5 28.621,-10.97 44.078,-13.46 15.434,-2.49 28.621,-3.73 39.594,-3.73 29.883,0 64.242,6.96 103.094,20.92 38.847,13.93 78.672,33.1 119.527,57.53 40.824,24.39 80.914,53.26 120.274,86.65 39.335,33.36 74.449,69.22 105.332,107.58 30.863,38.33 55.773,78.18 74.707,119.52 18.911,41.32 28.391,82.92 28.391,124.76 0,27.87 -1.5,54.02 -4.48,78.44 -2.99,24.39 -8.97,45.8 -17.93,64.24 -8.97,18.43 -21.435,32.87 -37.356,43.33 -15.95,10.46 -36.868,15.69 -62.754,15.69 -59.762,0 -116.047,-6.98 -168.828,-20.92 -52.809,-13.96 -99.618,-29.13 -140.45,-45.57 -40.851,-16.43 -74.961,-31.37 -102.343,-44.82 -27.411,-13.44 -46.086,-20.17 -56.028,-20.17 -19.937,0 -39.597,4.48 -59.023,13.45 -19.418,8.96 -36.606,20.66 -51.543,35.11 -14.942,14.43 -27.149,30.11 -36.606,47.07 -9.476,16.92 -14.195,33.35 -14.195,49.3 0,39.83 11.695,83.15 35.113,129.99 23.387,46.81 54.536,93.87 93.379,141.19 38.848,47.3 83.672,92.63 134.473,135.96 50.801,43.33 103.578,81.92 158.375,115.79 54.766,33.86 109.812,61 165.098,81.43 55.277,20.41 107.312,30.63 156.128,30.63"
         style="fill:#fcca20;fill-opacity:1;fill-rule:nonzero;stroke:none"
         id="path18" />
      <path
         d="m 2228.43,2423.05 c 0,-53.79 2.73,-98.87 8.22,-135.22 5.46,-36.36 9.94,-65.51 13.45,-87.4 3.47,-21.92 4.22,-37.61 2.24,-47.07 -2.02,-9.45 -10.98,-14.18 -26.9,-14.18 -24.91,0 -46.57,5.74 -64.99,17.17 -18.45,11.44 -34.37,26.9 -47.82,46.32 -13.44,19.42 -24.9,41.09 -34.36,65 -9.47,23.9 -17.18,48.79 -23.16,74.7 -13.96,59.76 -21.43,127.48 -22.41,203.2 -22.92,-71.72 -44.82,-134.99 -65.73,-189.75 -8.97,-23.91 -18.19,-47.32 -27.65,-70.23 -9.47,-22.92 -18.93,-43.09 -28.38,-60.51 -9.49,-17.44 -18.19,-31.63 -26.15,-42.58 -7.99,-10.97 -14.94,-16.44 -20.92,-16.44 -11.95,0 -27.64,1.73 -47.07,5.23 -19.42,3.48 -38.35,10.96 -56.77,22.42 -18.45,11.43 -34.36,27.38 -47.81,47.81 -13.45,20.4 -20.17,47.06 -20.17,79.93 0,21.9 1.99,51.78 5.97,89.64 3.97,37.85 8.22,78.19 12.71,121.03 4.48,42.82 9.19,86.4 14.19,130.73 4.97,44.31 8.71,84.42 11.2,120.28 2.48,35.86 2.74,64.99 0.75,87.4 -2,22.41 -6.98,33.62 -14.94,33.62 -14.94,0 -28.9,-13.71 -41.83,-41.09 -12.96,-27.41 -25.41,-63.01 -37.36,-106.82 -11.95,-43.85 -23.42,-92.9 -34.36,-147.18 -10.98,-54.3 -21.43,-108.08 -31.38,-161.36 -9.96,-53.3 -19.42,-103.61 -28.39,-150.9 -8.96,-47.32 -17.44,-85.42 -25.39,-114.3 4.97,-19.94 6.72,-33.87 5.22,-41.84 -1.49,-7.96 -11.72,-11.94 -30.62,-11.94 -33.88,0 -62.01,10.46 -84.42,31.37 -22.41,20.91 -40.11,48.05 -53.04,81.43 -12.96,33.35 -22.18,71.2 -27.64,113.54 -5.49,42.33 -9.22,84.43 -11.21,126.26 -1.99,41.83 -2.47,81.92 -1.49,120.28 1,38.33 1.49,70.45 1.49,96.36 0,10.96 -2.99,18.42 -8.96,22.41 -5.98,3.98 -8.97,11.44 -8.97,22.41 0,10.96 10.97,17.68 32.87,20.18 21.9,2.47 46.06,0.98 72.47,-4.49 26.38,-5.48 50.54,-15.19 72.46,-29.13 21.9,-13.96 32.87,-31.89 32.87,-53.79 0,-43.84 -2.76,-90.65 -8.22,-140.44 -5.48,-49.82 -8.21,-101.6 -8.21,-155.39 0,-10.97 0,-21.43 0,-31.38 0,-9.96 0.48,-18.93 1.49,-26.89 4.95,30.86 11.67,68.73 20.12,113.55 8.45,44.83 18.38,91.89 29.82,141.19 11.43,49.31 24.35,98.36 38.77,147.17 14.43,48.79 30.07,92.64 46.97,131.48 16.9,38.85 35.04,70.23 54.42,94.13 19.37,23.91 40.02,35.86 61.89,35.86 42.75,0 75.54,-14.94 98.42,-44.82 22.86,-29.89 38.75,-67.24 47.72,-112.06 8.94,-44.82 13.16,-93.15 12.68,-144.93 -0.52,-51.8 -2.76,-100.1 -6.72,-144.92 -3.98,-44.83 -7.97,-82.18 -11.94,-112.06 -3.96,-29.88 -4.46,-44.83 -1.47,-44.83 2.97,0 7.94,8.97 14.9,26.9 6.95,17.93 15.41,40.34 25.35,67.23 9.94,26.9 21.36,56.26 34.29,88.16 12.91,31.86 26.08,61.25 39.51,88.15 13.41,26.89 26.84,49.3 40.26,67.23 13.43,17.93 26.6,26.9 39.53,26.9 18.86,0 38,-1.5 57.41,-4.49 19.37,-2.98 36.79,-8.21 52.2,-15.69 15.41,-7.46 28.05,-17.69 38,-30.62 9.94,-12.96 14.92,-29.39 14.92,-49.31 0,-24.91 -2.99,-55.8 -8.96,-92.63 -5.98,-36.86 -8.97,-80.2 -8.97,-129.99"
         style="fill:#fcca20;fill-opacity:1;fill-rule:nonzero;stroke:none"
         id="path20" />
      <path
         d="m 2643.77,2216.87 c 15.93,0 31.38,15.44 46.32,46.4 14.94,30.96 27.88,69.9 38.85,116.82 10.95,46.93 19.16,97.61 24.65,152.03 5.46,54.39 6.72,105.08 3.74,152 -3,46.92 -10.98,85.87 -23.91,116.82 -12.95,30.95 -32.87,46.43 -59.77,46.43 -11.94,0 -20.42,-8.5 -25.4,-25.47 -4.99,-16.97 -9.47,-36.69 -13.44,-59.15 -3.99,-22.46 -8.97,-45.18 -14.94,-68.15 -5.98,-22.97 -15.46,-40.43 -28.39,-52.41 0,-44.93 -1.49,-92.38 -4.48,-142.29 -2.99,-49.91 -4.25,-95.86 -3.74,-137.78 0.49,-41.93 4.97,-76.62 13.45,-104.08 8.45,-27.45 24.14,-41.17 47.06,-41.17 z m 40.34,721.65 c 21.9,0 42.33,-5.49 61.26,-16.44 18.91,-10.98 35.35,-28.9 49.31,-53.79 13.94,-24.91 25.14,-57.03 33.61,-96.37 8.46,-39.36 12.71,-87.4 12.71,-144.18 0,-56.78 -5,-114.3 -14.95,-172.57 -9.96,-58.27 -25.91,-110.82 -47.81,-157.62 -21.92,-46.84 -50.05,-84.93 -84.41,-114.3 -34.37,-29.39 -75.97,-44.07 -124.76,-44.07 -43.84,0 -79.94,11.2 -108.33,33.61 -28.38,22.41 -50.79,50.8 -67.23,85.16 -16.43,34.37 -27.64,72.21 -33.61,113.55 -5.98,41.33 -8.96,80.92 -8.96,118.78 0,34.86 1.97,70.98 5.97,108.32 3.97,37.36 10.95,71.96 20.91,103.85 9.95,31.86 23.91,59.24 41.84,82.17 17.93,22.9 40.34,37.35 67.23,43.33 8.97,24.89 20.92,44.82 35.87,59.77 14.93,14.93 31.37,26.14 49.3,33.61 17.93,7.47 36.6,12.19 56.02,14.2 19.43,1.98 38.1,2.99 56.03,2.99"
         style="fill:#fcca20;fill-opacity:1;fill-rule:nonzero;stroke:none"
         id="path22" />
      <path
         d="m 3175.66,2556.03 c 49.8,7.95 90.4,25.14 121.77,51.54 31.38,26.38 56.03,55.02 73.96,85.91 17.93,30.87 30.12,59.51 36.61,85.91 6.46,26.38 9.71,43.56 9.71,51.55 0,29.88 -9.23,45.31 -27.65,46.32 -18.44,0.97 -40.59,-10.46 -66.48,-34.37 -25.92,-23.9 -52.55,-60.28 -79.93,-109.07 -27.41,-48.81 -50.05,-108.09 -67.99,-177.79 z m 664.87,-614.08 c 15.93,0 26.65,-4.23 32.13,-12.7 5.46,-8.45 4.72,-17.67 -2.24,-27.64 -6.98,-9.94 -20.17,-19.16 -39.6,-27.64 -19.42,-8.45 -45.57,-12.71 -78.43,-12.71 -61.78,0 -115.05,14.46 -159.87,43.34 -44.83,28.9 -83.93,65.25 -117.29,109.07 -33.39,43.84 -62.75,91.65 -88.15,143.43 -25.4,51.78 -49.56,100.85 -72.47,147.17 -22.92,46.32 -46.31,86.15 -70.22,119.53 -23.9,33.35 -51.32,53.53 -82.17,60.51 -7.99,-37.86 -12.47,-78.21 -13.45,-121.02 6.96,-46.83 15.43,-84.19 25.4,-112.06 9.94,-27.9 17.67,-49.31 23.16,-64.25 5.46,-14.94 7.47,-24.91 5.97,-29.88 -1.49,-5 -9.22,-7.47 -23.16,-7.47 -28.89,0 -58.26,8.45 -88.15,25.4 -29.88,16.92 -56.77,42.82 -80.68,77.69 -23.91,34.86 -43.58,79.68 -59.02,134.47 -15.45,54.77 -23.15,119.53 -23.15,194.23 0,23.91 1.23,57.01 3.73,99.36 2.48,42.33 5.72,88.15 9.72,137.46 3.96,49.3 7.95,99.85 11.94,151.65 3.97,51.78 7.97,99.36 11.96,142.69 3.97,43.32 7.21,79.93 9.71,109.81 2.47,29.88 3.73,47.81 3.73,53.79 0,12.93 5.47,22.41 16.44,28.39 10.95,5.97 24.65,9.19 41.09,9.71 16.43,0.49 34.36,-1.76 53.78,-6.72 19.43,-5 37.36,-11.72 53.79,-20.18 16.44,-8.47 30.12,-18.67 41.09,-30.62 10.95,-11.96 16.44,-24.43 16.44,-37.36 0,-17.93 -2.99,-50.05 -8.96,-96.36 -5.99,-46.33 -12.96,-98.38 -20.92,-156.14 -7.99,-57.78 -15.46,-117.29 -22.42,-178.55 -6.98,-61.26 -11.95,-115.3 -14.94,-162.1 12.93,35.85 29.37,71.95 49.31,108.32 19.91,36.35 41.09,69.22 63.5,98.61 22.4,29.37 44.82,53.04 67.23,70.97 22.42,17.93 42.58,26.89 60.51,26.89 24.89,0 50.06,-0.74 75.45,-2.24 25.41,-1.5 48.3,-6.72 68.73,-15.69 20.41,-8.96 37.1,-23.41 50.05,-43.33 12.93,-19.94 19.43,-48.81 19.43,-86.65 0,-35.86 -5,-67.49 -14.95,-94.88 -9.96,-27.41 -23.9,-51.31 -41.83,-71.72 -17.93,-20.42 -38.84,-38.09 -62.75,-53.03 -23.91,-14.95 -49.82,-27.41 -77.69,-37.36 16.92,-29.88 34.1,-65.25 51.54,-106.08 17.42,-40.86 36.35,-82.92 56.78,-126.25 20.4,-43.33 42.32,-85.91 65.74,-127.75 23.39,-41.83 49.05,-79.41 76.95,-112.8 27.87,-33.36 58.01,-60.25 90.39,-80.68 32.36,-20.4 67.98,-30.63 106.82,-30.63"
         style="fill:#fcca20;fill-opacity:1;fill-rule:nonzero;stroke:none"
         id="path24" />
      <path
         d="m 4075.1,2584.41 c 2.99,8.96 6.47,15.18 10.46,18.68 3.97,3.48 7.97,4.48 11.95,2.98 3.98,-1.48 6.96,-4.47 8.97,-8.96 1.98,-4.48 2.48,-9.71 1.49,-15.69 -2.98,-11.95 -8.73,-30.62 -17.18,-56.03 -8.47,-25.39 -18.93,-53.78 -31.37,-85.16 -12.47,-31.38 -26.41,-63.76 -41.84,-97.11 -15.45,-33.39 -31.64,-63.76 -48.56,-91.14 -16.94,-27.41 -34.36,-49.82 -52.29,-67.24 -17.93,-17.44 -35.37,-26.15 -52.29,-26.15 h -2.99 c -48.82,0 -87.66,15.17 -116.54,45.58 -28.9,30.37 -50.8,67.46 -65.74,111.3 -14.94,43.82 -24.66,89.39 -29.13,136.72 -4.49,47.29 -6.73,88.38 -6.73,123.26 0,42.82 0.75,79.68 2.24,110.56 1.5,30.87 3.48,56.77 5.98,77.69 2.47,20.92 4.48,38.1 5.98,51.55 1.49,13.45 2.23,24.65 2.23,33.62 0,15.92 9.72,25.14 29.14,27.63 19.42,2.48 41.09,-0.25 64.99,-8.21 23.91,-7.99 45.58,-19.68 65,-35.11 19.42,-15.46 29.13,-32.64 29.13,-51.55 0,-13.95 -0.51,-29.39 -1.49,-46.31 -1.01,-16.95 -2.01,-34.89 -2.99,-53.79 -1,-18.94 -2.01,-37.61 -2.99,-56.03 -1,-18.44 -1.49,-35.63 -1.49,-51.54 0,-80.69 6.21,-146.43 18.67,-197.23 12.44,-50.8 25.15,-90.65 38.1,-119.52 9.94,4.97 21.16,15.92 33.62,32.86 12.44,16.93 25.14,36.36 38.1,58.27 12.93,21.9 25.4,45.32 37.36,70.23 11.94,24.88 22.89,48.55 32.86,70.97 9.95,22.41 18.17,42.06 24.65,59.01 6.47,16.93 10.7,28.88 12.7,35.86 z m -168.83,466.16 c 0,-22.92 -7.24,-38.61 -21.66,-47.06 -14.46,-8.48 -32.39,-11.96 -53.79,-10.46 -21.43,1.5 -44.82,6.72 -70.23,15.69 -25.39,8.96 -48.81,19.91 -70.22,32.86 -21.43,12.94 -39.36,26.64 -53.78,41.1 -14.43,14.42 -21.67,28.12 -21.67,41.08 0,18.91 3.74,33.36 11.21,43.33 7.47,9.95 17.41,17.18 29.88,21.66 12.44,4.49 27.13,6.96 44.08,7.48 16.92,0.48 34.85,0.74 53.78,0.74 17.93,0 36.09,-4.99 54.54,-14.94 18.42,-9.97 34.85,-22.41 49.3,-37.35 14.43,-14.94 26.15,-30.89 35.11,-47.81 8.97,-16.95 13.45,-32.38 13.45,-46.32"
         style="fill:#fcca20;fill-opacity:1;fill-rule:nonzero;stroke:none"
         id="path26" />
      <path
         d="m 4702.6,2883.23 c 0,-11.96 -2.03,-29.88 -6.09,-53.78 -4.06,-23.91 -8.9,-51.31 -14.48,-82.18 -5.6,-30.89 -11.69,-63.76 -18.27,-98.61 -6.61,-34.88 -12.71,-68.73 -18.28,-101.6 -5.61,-32.87 -10.42,-63.76 -14.48,-92.64 -4.06,-28.89 -6.09,-52.8 -6.09,-71.71 0,-56.78 1.56,-99.87 4.71,-129.24 3.14,-29.39 6.54,-51.55 10.23,-66.49 3.66,-14.94 7.07,-25.91 10.23,-32.87 3.13,-6.98 4.71,-15.92 4.71,-26.89 0,-10.95 -11.72,-16.44 -35.1,-16.44 -23.42,0 -49.31,8.48 -77.71,25.4 -28.38,16.93 -54.29,44.08 -77.69,81.43 -23.41,37.36 -35.11,87.4 -35.11,150.16 0,41.83 1.73,84.91 5.19,129.24 3.45,44.31 7.65,87.63 12.61,129.98 4.94,42.33 10.62,82.41 17.03,120.28 6.42,37.84 12.12,71.2 17.07,100.1 -10.95,-27.9 -23.13,-62 -36.59,-102.35 -13.44,-40.33 -27.35,-83.66 -41.78,-129.98 -14.43,-46.31 -28.88,-93.15 -43.3,-140.44 -14.43,-47.32 -28.63,-91.66 -42.56,-132.98 -13.94,-41.34 -27.13,-77.95 -39.55,-109.82 -12.44,-31.89 -23.65,-54.78 -33.59,-68.72 -1.01,-6.98 -4.98,-11.96 -11.94,-14.94 h -4.48 c -5.97,-2.01 -11.95,-2.99 -17.9,-2.99 -35.86,0 -65.72,12.7 -89.6,38.1 -23.88,25.4 -43.28,57 -58.23,94.88 -14.93,37.84 -25.88,79.18 -32.84,124 -6.95,44.83 -11.7,86.89 -14.17,126.25 -2.5,39.34 -3.5,72.7 -2.99,100.11 0.49,27.38 0.75,43.07 0.75,47.06 0,6.96 -0.75,11.7 -2.24,14.2 -1.47,2.47 -3.46,4.97 -5.96,7.47 -2.47,2.47 -4.48,4.97 -5.97,7.47 -1.5,2.47 -2.25,7.21 -2.25,14.19 0,6.96 11.47,12.44 34.37,16.44 22.9,3.96 48.05,4.71 75.45,2.23 27.38,-2.49 52.53,-9.47 75.45,-20.91 22.91,-11.46 34.37,-29.13 34.37,-53.04 0,-7.98 -0.26,-22.67 -0.75,-44.08 -0.51,-21.43 -1.26,-44.82 -2.24,-70.22 -1,-25.4 -1.75,-50.05 -2.24,-73.96 -0.52,-23.9 -0.75,-41.83 -0.75,-53.79 0,-19.93 0.75,-38.35 2.24,-55.28 1.49,-16.95 3.22,-32.87 5.23,-47.8 8.96,31.86 20.17,68.21 33.62,109.06 13.44,40.83 27.88,83.42 43.33,127.74 15.43,44.32 32.12,88.39 50.05,132.24 17.93,43.81 36.09,84.41 54.54,121.76 18.42,37.36 37.09,69.48 56.03,96.37 18.9,26.89 37.35,45.31 55.28,55.28 1.98,1.99 5.97,3.97 11.95,5.98 2.99,0.99 5.72,1.73 8.22,2.24 2.47,0.49 5.23,0.75 8.21,0.75 4.98,0 9.72,0 14.19,0 4.49,0 9.21,-0.51 14.2,-1.49 22.9,0 36.84,-2.5 41.83,-7.48 23.91,-6.97 45.58,-17.17 65,-30.62 19.42,-13.45 29.13,-29.14 29.13,-47.07"
         style="fill:#fcca20;fill-opacity:1;fill-rule:nonzero;stroke:none"
         id="path28" />
      <path
         d="m 5105.75,2150.49 c -8.27,-14.76 -13.21,-30.81 -17.05,-47.31 1.7,-12.27 2.91,-24.98 3.5,-38.24 2.41,-55.33 -2.72,-114.47 -15.39,-177.43 -12.71,-62.96 -30.97,-127.77 -54.8,-194.44 -23.85,-66.67 -50.71,-130.31 -80.6,-190.87 -29.91,-60.57 -61.4,-116.03 -94.48,-166.46 -33.09,-50.39 -65.03,-90.95 -95.81,-121.66 -30.78,-30.7 -58.92,-49.88 -84.4,-57.5 -25.49,-7.63 -45.48,1.61 -60.01,27.67 -13.48,24.12 -20.78,50.92 -21.96,80.37 -1.16,29.47 1.41,59.04 7.69,88.72 6.31,29.69 14.8,59.03 25.51,88.04 10.69,29.03 20.98,55.3 30.85,78.79 9.87,23.52 17.79,43.84 23.77,60.94 5.95,17.11 7.37,28.62 4.2,34.5 -3.15,5.89 -11.85,1.33 -26.05,-13.62 -14.19,-14.96 -29.77,-36.6 -46.66,-64.9 -16.91,-28.3 -33.73,-61.24 -50.44,-98.8 -16.74,-37.56 -30.36,-75.49 -40.89,-113.76 -10.53,-38.28 -15.55,-75.24 -15.11,-110.92 0.46,-35.65 9.21,-65.58 26.27,-89.8 16,-22.24 40.7,-53.86 74.09,-60.94 33.39,-7.09 68.44,-14.88 105.12,-12.12 36.7,2.79 71.45,2.8 104.29,11.34 32.82,8.56 79.96,34.4 96.24,43.63 50.77,28.83 84.44,82.74 123.64,139.2 39.17,56.47 61.38,119.97 89.2,190.55 27.8,70.58 49.77,144.97 65.91,223.18 16.1,78.21 26.56,153.1 31.33,224.69 4.76,71.59 3.82,136.82 -2.79,195.72 -5.15,45.58 -13.88,83.18 -26.11,112.97 -30.67,3.52 -63.56,-13.84 -79.06,-41.54"
         style="fill:#fcca20;fill-opacity:1;fill-rule:nonzero;stroke:none"
         id="path30" />
      <path
         d="m 1495.15,350.801 c 16.17,0 31.44,6.898 45.85,20.699 14.43,13.891 26.81,29.461 37.19,46.75 12.7,19.629 24.21,42.121 34.59,67.461 -40.35,0 -72.06,-6.91 -95.14,-20.75 -23.05,-13.84 -38.92,-29.402 -47.56,-46.711 -8.65,-17.289 -10.66,-32.859 -6.06,-46.75 4.63,-13.801 15,-20.699 31.13,-20.699 z m 377.1,247.359 c 69.2,1.16 140.68,-1.437 214.5,-7.789 73.79,-6.332 145.31,-16.43 214.5,-30.269 69.19,-13.84 134.33,-30.84 195.47,-51.032 61.1,-20.16 114.43,-42.648 160,-67.461 45.54,-24.789 80.71,-52.168 105.52,-82.207 24.78,-29.902 36.03,-61.101 33.73,-93.402 -4.62,-50.699 -19.32,-87.898 -44.11,-111.5 -24.81,-23.699 -52.19,-34.301 -82.17,-32 -6.91,1.102 -21.35,10.102 -43.24,26.801 -21.92,16.699 -51.33,37.5 -88.22,62.199 -36.92,24.898 -80.43,51.902 -130.6,81.301 -50.17,29.5 -106.38,56.898 -168.66,82.199 -62.27,25.391 -130.33,46.441 -204.11,63.152 -73.82,16.727 -152.82,25.668 -236.99,26.809 -42.67,-58.82 -85.62,-100.359 -128.87,-124.559 -43.25,-24.203 -83.9,-36.3 -121.95,-36.3 -32.27,0 -59.09,4 -80.44,12.097 -21.32,8.102 -38.33,18.203 -51.03,30.301 -12.67,12.102 -21.62,25 -26.81,38.891 -5.19,13.839 -7.78,26.539 -7.78,38.058 0,13.832 5.48,31.731 16.43,53.621 10.97,21.91 35.46,42.672 73.52,62.27 20.76,13.832 49.59,24.219 86.49,31.14 23.08,6.911 47.87,12.11 74.38,15.571 8.09,25.371 15.87,53.031 23.35,83.019 7.49,29.981 14.11,62.852 19.9,98.61 8.05,47.269 15.27,107.519 21.62,180.761 6.33,73.219 12.11,151.929 17.3,236.119 5.18,84.16 9.78,170.39 13.84,258.6 4.02,88.22 7.77,170.09 11.24,245.64 3.46,75.52 6.62,140.98 9.51,196.33 2.86,55.36 6.06,93.41 9.51,114.17 3.47,20.76 12.98,39.19 28.55,55.35 15.56,16.14 33.44,29.41 53.62,39.79 20.16,10.37 41.52,17.3 64,20.76 22.49,3.46 42.66,2.59 60.55,-2.6 17.86,-5.18 31.7,-15 41.52,-29.4 9.78,-14.44 12.37,-34.9 7.77,-61.41 -3.45,-16.16 -6.05,-49.03 -7.77,-98.6 -1.73,-49.6 -4.06,-109.85 -6.93,-180.77 -2.89,-70.92 -6.05,-148.76 -9.51,-233.52 -3.46,-84.76 -7.51,-169.52 -12.11,-254.29 -4.62,-84.75 -10.67,-166.92 -18.16,-246.49 -7.52,-79.569 -16.44,-148.761 -26.81,-207.581 -13.84,-73.816 -34.03,-141.277 -60.55,-202.379"
         style="fill:#fcca20;fill-opacity:1;fill-rule:nonzero;stroke:none"
         id="path32" />
      <path
         d="m 2680.07,1136.12 c 3.45,10.38 7.49,17.57 12.1,21.63 4.6,4.02 9.22,5.18 13.84,3.46 4.6,-1.73 8.05,-5.19 10.38,-10.38 2.3,-5.19 2.87,-11.24 1.73,-18.17 -3.45,-13.83 -10.11,-35.46 -19.89,-64.87 -9.81,-29.4 -21.92,-62.26 -36.32,-98.591 -14.44,-36.328 -30.58,-73.82 -48.44,-112.437 -17.9,-38.653 -36.63,-73.821 -56.22,-105.512 -19.62,-31.738 -39.78,-57.691 -60.55,-77.848 -20.75,-20.191 -40.94,-30.273 -60.54,-30.273 h -3.46 c -56.51,0 -101.49,17.562 -134.92,52.762 -33.47,35.16 -58.81,78.109 -76.11,128.871 -17.3,50.73 -28.55,103.488 -33.73,158.277 -5.19,54.761 -7.79,102.321 -7.79,142.711 0,49.57 0.86,92.24 2.6,128 1.73,35.74 4.03,65.73 6.91,89.95 2.87,24.22 5.2,44.11 6.92,59.68 1.74,15.57 2.6,28.54 2.6,38.92 0,18.44 11.25,29.11 33.73,32 22.49,2.87 47.57,-0.29 75.25,-9.51 27.67,-9.25 52.76,-22.79 75.25,-40.65 22.48,-17.89 33.72,-37.79 33.72,-59.68 0,-16.16 -0.59,-34.03 -1.73,-53.62 -1.16,-19.62 -2.32,-40.39 -3.45,-62.28 -1.17,-21.92 -2.33,-43.54 -3.47,-64.87 -1.16,-21.35 -1.72,-41.24 -1.72,-59.68 0,-93.4 7.19,-169.51 21.62,-228.33 14.4,-58.809 29.11,-104.95 44.11,-138.379 11.51,5.75 24.49,18.429 38.92,38.051 14.4,19.597 29.11,42.089 44.11,67.468 14.98,25.34 29.41,52.461 43.25,81.301 13.83,28.809 26.51,56.209 38.05,82.159 11.51,25.95 21.03,48.71 28.54,68.33 7.49,19.59 12.39,33.44 14.71,41.51 z m -195.47,539.7 c 0,-26.53 -8.39,-44.7 -25.09,-54.48 -16.73,-9.82 -37.49,-13.84 -62.27,-12.11 -24.81,1.73 -51.89,7.78 -81.3,18.16 -29.4,10.38 -56.52,23.06 -81.3,38.05 -24.81,14.98 -45.57,30.84 -62.27,47.58 -16.71,16.7 -25.08,32.56 -25.08,47.57 0,21.89 4.32,38.62 12.97,50.16 8.64,11.52 20.16,19.89 34.6,25.08 14.41,5.2 31.4,8.06 51.02,8.65 19.6,0.57 40.35,0.87 62.28,0.87 20.75,0 41.78,-5.79 63.14,-17.3 21.32,-11.55 40.35,-25.95 57.08,-43.25 16.7,-17.3 30.27,-35.76 40.65,-55.35 10.38,-19.63 15.57,-37.49 15.57,-53.63"
         style="fill:#fcca20;fill-opacity:1;fill-rule:nonzero;stroke:none"
         id="path34" />
      <path
         d="m 2948.16,710.59 c 18.43,0 36.32,17.89 53.62,53.73 17.3,35.852 32.28,80.93 44.98,135.25 12.68,54.328 22.19,113.01 28.54,176.01 6.32,62.98 7.79,121.66 4.33,175.98 -3.47,54.32 -12.71,99.42 -27.68,135.25 -15,35.84 -38.06,53.76 -69.19,53.76 -13.84,0 -23.66,-9.84 -29.41,-29.49 -5.78,-19.64 -10.97,-42.49 -15.57,-68.48 -4.62,-26.01 -10.38,-52.3 -17.29,-78.9 -6.93,-26.6 -17.9,-46.81 -32.87,-60.68 0,-52.03 -1.73,-106.95 -5.19,-164.74 -3.46,-57.78 -4.92,-110.979 -4.33,-159.518 0.57,-48.543 5.76,-88.711 15.57,-120.492 9.79,-31.79 27.95,-47.68 54.49,-47.68 z m 46.71,835.5 c 25.35,0 49,-6.35 70.92,-19.03 21.89,-12.7 40.92,-33.46 57.08,-62.27 16.14,-28.84 29.11,-66.03 38.92,-111.57 9.78,-45.57 14.71,-101.2 14.71,-166.93 0,-65.74 -5.79,-132.33 -17.3,-199.798 -11.55,-67.461 -30,-128.301 -55.35,-182.492 -25.39,-54.219 -57.96,-98.328 -97.74,-132.32 -39.79,-34.032 -87.95,-51.039 -144.44,-51.039 -50.76,0 -92.55,12.968 -125.41,38.929 -32.87,25.942 -58.82,58.809 -77.84,98.59 -19.03,39.789 -32.01,83.602 -38.92,131.469 -6.92,47.84 -10.38,93.684 -10.38,137.511 0,40.36 2.29,82.17 6.92,125.42 4.6,43.24 12.67,83.3 24.22,120.22 11.51,36.89 27.67,68.6 48.43,95.14 20.76,26.51 46.71,43.24 77.84,50.17 10.38,28.8 24.22,51.89 41.52,69.19 17.29,17.29 36.32,30.27 57.08,38.92 20.76,8.64 42.38,14.11 64.86,16.43 22.5,2.3 44.12,3.46 64.88,3.46"
         style="fill:#fcca20;fill-opacity:1;fill-rule:nonzero;stroke:none"
         id="path36" />
      <path
         d="m 4079.45,1482.09 c 0,-13.84 -2.35,-34.6 -7.06,-62.28 -4.7,-27.67 -10.3,-59.4 -16.76,-95.13 -6.48,-35.76 -13.54,-73.82 -21.16,-114.17 -7.65,-40.38 -14.71,-79.57 -21.16,-117.63 -6.49,-38.06 -12.06,-73.82 -16.76,-107.251 -4.7,-33.457 -7.05,-61.137 -7.05,-83.027 0,-65.731 1.81,-115.622 5.45,-149.629 3.63,-34.024 7.57,-59.684 11.84,-76.973 4.24,-17.301 8.19,-30.008 11.84,-38.059 3.62,-8.082 5.46,-18.429 5.46,-31.132 0,-12.68 -13.57,-19.039 -40.65,-19.039 -27.11,0 -57.08,9.82 -89.95,29.41 -32.87,19.601 -62.87,51.031 -89.95,94.281 -27.11,43.25 -40.65,101.187 -40.65,173.84 0,48.441 2,98.308 6,149.629 4,51.3 8.87,101.46 14.59,150.49 5.74,49.01 12.3,95.41 19.74,139.26 7.43,43.81 14.02,82.43 19.75,115.89 -12.67,-32.3 -26.78,-71.79 -42.35,-118.49 -15.57,-46.7 -31.68,-96.87 -48.38,-150.5 -16.7,-53.62 -33.43,-107.83 -50.13,-162.6 -16.71,-54.789 -33.15,-106.109 -49.28,-153.949 -16.14,-47.871 -31.41,-90.242 -45.79,-127.14 -14.4,-36.922 -27.38,-63.43 -38.89,-79.571 -1.16,-8.078 -5.76,-13.84 -13.81,-17.3 h -5.19 c -6.92,-2.321 -13.84,-3.457 -20.73,-3.457 -41.52,0 -76.09,14.699 -103.73,44.117 -27.65,29.39 -50.12,65.992 -67.42,109.832 -17.29,43.82 -29.97,91.679 -38.02,143.578 -8.06,51.89 -13.55,100.6 -16.41,146.17 -2.89,45.54 -4.05,84.17 -3.46,115.89 0.57,31.71 0.87,49.87 0.87,54.5 0,8.05 -0.87,13.53 -2.6,16.43 -1.7,2.86 -4,5.75 -6.89,8.64 -2.86,2.87 -5.19,5.77 -6.92,8.66 -1.73,2.86 -2.6,8.35 -2.6,16.43 0,8.05 13.27,14.4 39.79,19.03 26.52,4.59 55.63,5.45 87.36,2.59 31.7,-2.89 60.81,-10.97 87.35,-24.22 26.52,-13.27 39.79,-33.73 39.79,-61.41 0,-9.24 -0.3,-26.24 -0.87,-51.03 -0.6,-24.81 -1.45,-51.89 -2.59,-81.3 -1.16,-29.4 -2.03,-57.94 -2.59,-85.62 -0.61,-27.678 -0.87,-48.44 -0.87,-62.28 0,-23.078 0.87,-44.398 2.59,-64 1.73,-19.621 3.73,-38.05 6.05,-55.351 10.38,36.89 23.36,78.98 38.93,126.281 15.57,47.27 32.27,96.57 50.16,147.89 17.87,51.3 37.19,102.33 57.95,153.09 20.76,50.73 41.78,97.74 63.14,140.98 21.33,43.24 42.94,80.44 64.87,111.57 21.89,31.14 43.24,52.46 64,64.01 2.3,2.29 6.92,4.59 13.84,6.92 3.46,1.13 6.62,2 9.52,2.59 2.86,0.57 6.05,0.86 9.5,0.86 5.76,0 11.25,0 16.44,0 5.19,0 10.65,-0.59 16.43,-1.72 26.52,0 42.66,-2.9 48.44,-8.65 27.68,-8.08 52.76,-19.89 75.24,-35.46 22.49,-15.57 33.74,-33.74 33.74,-54.49"
         style="fill:#fcca20;fill-opacity:1;fill-rule:nonzero;stroke:none"
         id="path38" />
      <path
         d="m 5075.55,2123.05 c 15.93,0 31.38,15.45 46.32,46.41 14.94,30.96 27.88,69.9 38.85,116.81 10.95,46.93 19.17,97.61 24.65,152.03 5.46,54.4 6.73,105.08 3.74,152 -2.99,46.92 -10.97,85.87 -23.91,116.82 -12.95,30.96 -32.87,46.44 -59.76,46.44 -11.95,0 -20.43,-8.5 -25.4,-25.47 -5,-16.98 -9.48,-36.7 -13.45,-59.16 -3.99,-22.46 -8.97,-45.17 -14.94,-68.15 -5.98,-22.97 -15.46,-40.43 -28.39,-52.41 0,-44.93 -1.49,-92.37 -4.48,-142.29 -2.99,-49.91 -4.25,-95.85 -3.73,-137.77 0.48,-41.94 4.97,-76.63 13.44,-104.08 8.46,-27.46 24.14,-41.18 47.06,-41.18 z m 40.35,721.65 c 21.9,0 42.32,-5.49 61.26,-16.44 18.9,-10.97 35.34,-28.9 49.3,-53.78 13.94,-24.91 25.14,-57.04 33.62,-96.37 8.45,-39.36 12.7,-87.41 12.7,-144.18 0,-56.79 -5,-114.3 -14.95,-172.58 -9.96,-58.26 -25.9,-110.81 -47.8,-157.62 -21.93,-46.84 -50.06,-84.93 -84.42,-114.3 -34.37,-29.39 -75.96,-44.07 -124.76,-44.07 -43.84,0 -79.93,11.2 -108.32,33.61 -28.39,22.41 -50.8,50.8 -67.23,85.17 -16.44,34.36 -27.65,72.2 -33.62,113.55 -5.98,41.32 -8.96,80.91 -8.96,118.78 0,34.85 1.97,70.97 5.97,108.32 3.97,37.35 10.95,71.95 20.92,103.84 9.94,31.86 23.9,59.25 41.83,82.18 17.93,22.9 40.34,37.34 67.23,43.33 8.97,24.88 20.92,44.82 35.87,59.76 14.94,14.94 31.37,26.14 49.3,33.61 17.93,7.48 36.6,12.19 56.03,14.2 19.42,1.99 38.1,2.99 56.03,2.99"
         style="fill:#fcca20;fill-opacity:1;fill-rule:nonzero;stroke:none"
         id="path40" />
      <g
         id="g42">
        <g
           id="g44"
           clip-path="url(#clipPath48)">
          <path
             d="m 4771.66,6566.1 c 0,-1110.12 -1906.99,-1958.76 -1988.33,-1993.99 -9.66,-4.88 -21.25,-6.68 -31.54,-6.68 -11.59,0 -22.09,1.8 -32.62,6.68 -80.29,35.23 -1987.775,883.87 -1987.775,1993.99 v 2711.95 c 0,43.76 35.593,79.84 79.585,79.84 1589.01,0 1940.55,691.41 1940.55,691.41 0,0 346.22,-691.41 1941.01,-691.41 44.01,0 79.12,-36.08 79.12,-79.84 z m 86.28,2998.79 c -1730.49,0 -2106.32,738.01 -2106.32,738.01 0,0 -382.16,-738.01 -2106.421,-738.01 -47.586,0 -86.109,-39.37 -86.109,-86.63 V 6534.81 c 0,-1204.73 2070.08,-2125.7 2157.44,-2164.33 11.7,-5.11 22.78,-7.28 35.22,-7.28 11.27,0 23.34,2.17 34.26,7.28 88.43,38.63 2158.15,959.6 2158.15,2164.33 v 2943.45 c -0.18,47.26 -38.63,86.63 -86.22,86.63"
             style="fill:#fcca20;fill-opacity:1;fill-rule:nonzero;stroke:none"
             id="path50" />
          <path
             d="m 752.973,9388.35 1030.717,104.06 672.56,316.16 290.05,263.93 254.25,-263.93 711.68,-363.98 972.09,-95.1 h 84.48 V 6457.5 l -148.62,-538.36 -638.93,-624.35 -647.34,-464.14 -573.02,-231.11 -662.8,336.29 -1084.5,823.89 -260.617,571.72 v 3056.91"
             style="fill:#83171c;fill-opacity:1;fill-rule:nonzero;stroke:none"
             id="path52" />
          <path
             d="m 1162.81,9370.5 h 236.32 l 3285.19,-2926.57 39.53,-193.8 -229.78,-476.39 -333.49,-288.66 -3445.439,3073.95 37.832,745.85"
             style="fill:#211d1d;fill-opacity:1;fill-rule:nonzero;stroke:none"
             id="path54" />
          <path
             d="m 2908.15,8977.47 c 0,0 69.15,-8.13 74.59,-62.4 5.42,-54.24 -43.39,-84.09 -70.53,-100.36 -27.13,-16.29 -5.42,-62.39 59.69,-32.55 65.08,29.84 108.47,115.29 81.36,180.39 -18.81,45.13 -86.15,100.71 -164.22,84.43 -78.08,-16.3 -60.25,-85.12 19.11,-69.51"
             style="fill:#fcca20;fill-opacity:1;fill-rule:nonzero;stroke:none"
             id="path56" />
          <path
             d="m 2572.2,8944.49 c -23.13,-9.97 -107.54,-33.38 -114.29,19.07 -7.75,60.09 63.7,52.89 63.7,52.89 54.94,1.01 97.66,41.71 97.66,41.71 9.16,-38.64 -12.21,-98.68 -47.07,-113.67 z m 424.1,266.24 c 0,0 -282.1,46.12 -336.35,-65.08 0,0 -130.21,-2.04 -174.93,-44.76 -44.77,-42.73 -48.85,-73.24 -83.42,-79.34 -34.58,-6.11 -209.55,4.08 -270.57,-50.87 -61.04,-54.92 -42.72,-109.85 -40.67,-138.34 2.02,-28.46 42.69,-124.08 105.76,-126.12 0,0 12.21,65.1 105.8,65.1 93.57,0 154.61,-8.12 174.95,-32.55 20.34,-24.42 32.55,-126.13 -36.62,-174.95 -69.16,-48.83 -166.82,-36.61 -179.03,0 -12.19,36.61 -94.95,40.01 -92.22,-32.21 2.71,-72.22 79.58,-123.77 161.85,-115.63 82.27,8.13 49.74,-32.55 -18.08,-54.25 -67.81,-21.71 -417.73,-229.19 -429.92,-627.9 0,0 93.57,95.59 207.51,105.76 0,0 -28.5,288.89 203.41,370.27 0,0 -411.65,-467.9 199.01,-622.51 0,0 -57.95,164.11 -47.11,318.72 10.86,154.61 181.74,396.02 398.73,423.14 0,0 -339.06,-214.3 -311.93,-425.87 27.13,-211.56 208.86,-341.77 208.86,-341.77 0,0 -16.28,105.09 160.71,355.32 176.98,250.24 183.08,321.43 174.96,571.66 0,0 52.2,-21.72 60.32,-97.66 8.15,-75.94 29.89,-265.18 -48.8,-360.09 -78.67,-94.93 -222.42,-314.64 -222.42,-314.64 0,0 334.97,-23.05 428.57,273.98 93.57,297.01 29.84,649.66 -135.63,770.34 0,0 105.8,-5.43 153.28,-74.6 47.45,-69.17 32.53,-166.84 61.02,-168.18 28.48,-1.33 127.47,584.56 -377.04,693.03"
             style="fill:#fcca20;fill-opacity:1;fill-rule:nonzero;stroke:none"
             id="path58" />
          <path
             d="m 2594.84,7611.75 c 0,0 12.12,-93.57 46.77,-126.12 0,0 -247.47,21.71 -353.26,94.94 -105.78,73.23 -132.89,173.6 -200.71,176.29 -67.81,2.69 -180.39,-94.95 -302.44,-195.29 -122.06,-100.37 -244.12,-206.15 -374.33,-214.28 -130.19,-8.12 -93.57,151.84 -166.8,162.72 -73.23,10.86 -211.59,-113.87 -168.18,-197.97 0,0 48.83,59.64 86.8,37.96 37.99,-21.67 54.24,-73.25 24.42,-84.08 -29.84,-10.86 -132.9,-13.56 -108.49,-122.05 24.4,-108.51 97.63,-119.34 132.9,-116.64 0,0 -100.35,127.47 27.13,141.04 0,0 -21.72,-217.66 184.43,-141.37 0,0 -62.35,24.73 -67.79,78.98 -5.44,54.27 32.55,70.51 94.92,70.51 62.38,0 92.24,-21.69 92.24,-54.24 0,-32.55 -29.86,-56.95 -29.86,-56.95 0,0 86.82,-21.69 124.79,16.28 37.97,37.96 113.91,184.44 162.74,179 48.82,-5.42 -29.85,-111.22 -29.85,-111.22 0,0 94.95,-5.39 127.5,37.99 32.53,43.38 62.4,124.74 97.64,119.32 35.26,-5.41 5.43,-127.44 5.43,-127.44 0,0 65.11,-5.5 108.5,54.21 43.39,59.69 32.53,116.62 78.65,113.91 46.12,-2.71 309.22,-370.2 480.11,-476 170.88,-105.75 504.51,-223.77 508.57,-386.53 4.07,-162.72 -267.17,-311.92 -218.34,-474.67 48.83,-162.76 303.8,-222.41 309.22,-352.62 5.42,-130.2 -116.64,-401.45 -198.02,-393.32 -81.37,8.15 -5.44,157.34 -54.26,181.77 -48.81,24.42 -235.97,-21.69 -254.96,-165.47 0,0 97.66,59.66 130.21,27.11 32.53,-32.55 46.1,-111.19 5.42,-119.32 -40.7,-8.12 -219.71,-107.16 -26.45,-208.84 0,0 -10.19,91.52 81.36,83.39 91.55,-8.15 40.7,-130.2 122.06,-158.69 81.38,-28.46 118,16.27 118,16.27 0,0 -50.86,16.28 -48.81,44.77 2.02,28.49 15.24,56.95 45.75,61.04 30.51,4.03 63.06,50.84 69.17,112.88 6.11,62.03 48.5,146.75 106.81,157.64 58.31,10.86 188.5,36.61 233.27,111.22 0,0 -84.76,-11.52 -82.74,27.14 2.04,38.66 83.43,40.7 124.11,73.25 40.67,32.55 107.82,109.84 122.05,154.61 0,0 -77.98,-27.17 -102.38,5.38 -24.39,32.55 162.73,179.03 124.76,292.93 0,0 -29.84,-40.7 -105.77,-46.08 -75.93,-5.42 -170.9,67.8 -195.3,108.51 -24.42,40.7 -56.97,108.51 35.26,181.74 92.23,73.25 168.16,127.5 176.31,162.75 8.12,35.27 19.01,78.68 38,70.52 18.95,-8.12 96.24,-92.24 234.57,-75.96 138.35,16.28 256.35,142.39 248.22,317.36 -8.15,174.94 -117.99,333.61 -260.41,455.69 -142.39,122.05 -374.31,295.64 -385.17,377.02 -10.84,81.38 -9.5,225.12 8.16,252.27 17.62,27.13 61.01,33.92 61.01,-9.48 0,-43.42 25.09,-267.88 153.25,-367.56 128.16,-99.67 219.7,0 225.81,38.66 0,0 -48.83,-22.36 -71.21,20.34 -22.35,42.74 8.15,386.52 -120,461.79 -128.17,75.28 -331.61,44.77 -351.95,-148.48 -20.34,-193.27 8.15,-375.04 176.31,-532.35 168.17,-157.31 404.15,-368.9 409.57,-542.52 5.44,-173.55 -138.33,-184.41 -200.72,-94.91 -62.37,89.5 -62.37,179 -127.47,254.96 -65.1,76 -537.05,415.02 -588.6,504.54 -51.54,89.49 -75.97,311.91 -75.97,311.91 0,0 -98.5,-16.52 -130.18,-16.23 -40.68,0.36 -115.53,6.79 -115.53,6.79 0,0 -16.7,-152.61 9.75,-197.37 0,0 -211.57,67.16 -236,156.65"
             style="fill:#fcca20;fill-opacity:1;fill-rule:nonzero;stroke:none"
             id="path60" />
          <path
             d="m 2696.58,6773.62 c 0,0 -288.88,-211.58 -264.47,-325.51 24.42,-113.9 105.78,-187.16 109.86,-256.29 4.07,-69.19 -274.65,-325.54 -392.62,-272.62 -118,52.88 -38.66,78.58 -22.38,85.41 16.26,6.79 33.91,147.86 -54.25,157.37 -88.17,9.44 -183.1,0 -207.5,-65.1 0,0 92.24,8.12 105.78,-19.02 13.55,-27.11 29.84,-105.75 -24.4,-108.45 -54.24,-2.74 -70.54,40.67 -103.08,35.23 -32.55,-5.42 -143.77,-113.87 -100.36,-197.99 0,0 84.76,63.72 129.5,39.29 44.76,-24.4 69.19,-42.69 54.93,-61.01 -14.23,-18.32 -71.19,-63.09 -42.7,-126.11 28.47,-63.09 85.43,-105.81 85.43,-105.81 0,0 6.1,140.37 54.93,128.16 48.8,-12.19 26.45,-50.88 26.45,-50.88 0,0 69.16,-12.18 101.71,44.8 32.55,56.95 27.4,77.29 61.51,77.29 34.11,0 182.61,28.46 202.95,-6.11 20.34,-34.57 106.47,-48.16 201.4,-15.61 0,0 -48.83,32.52 -40.68,54.24 8.13,21.69 287.51,-29.85 314.62,24.43 0,0 -149.17,56.95 -111.2,105.78 37.97,48.79 100.54,-25.46 141.04,27.16 0,0 -59.66,2.74 -59.66,105.78 0,103.07 19,157.31 89.5,219.7 70.52,62.4 132.92,108.52 124.77,222.45 -8.13,113.96 -381.08,283.42 -381.08,283.42"
             style="fill:#fcca20;fill-opacity:1;fill-rule:nonzero;stroke:none"
             id="path62" />
          <path
             d="m 2000.84,8231.55 c 0,0 -113.93,-5.46 -211.58,24.38 -97.65,29.86 -341.77,225.15 -336.34,301.07 5.42,75.95 8.82,112.61 53.56,116.66 44.77,4.09 16.77,124.11 -53.66,144.45 -70.42,20.34 -184.35,6.1 -192.48,-36.6 0,0 48.83,14.22 59,-9.18 10.15,-23.37 -10.17,-78.32 -10.17,-78.32 0,0 -59,77.31 -124.1,78.32 -65.11,1.01 -172.91,-127.13 -95.61,-196.32 0,0 54.91,87.51 85.42,69.19 30.53,-18.32 54.93,-77.32 22.4,-79.34 -32.55,-2.04 -65.1,6.11 -77.32,-16.27 -12.19,-22.38 -44.74,-154.61 67.15,-148.51 0,0 6.11,44.76 42.7,48.81 36.62,4.08 69.17,-16.28 79.36,-59 10.17,-42.7 -38.66,-103.74 -91.55,-81.35 0,0 42.72,-105.16 162.07,-132.28 119.35,-27.09 143.74,-32.55 141.05,-65.1 -2.71,-32.55 -54.25,-51.52 -70.53,-35.24 -16.27,16.27 48.83,-89.55 149.2,-103.1 100.34,-13.54 89.5,-27.09 86.79,-43.37 -2.72,-16.27 -84.11,-16.27 -84.11,-16.27 0,0 27.16,-97.62 217.01,-78.65 0,0 24.4,309.26 181.74,396.02"
             style="fill:#fcca20;fill-opacity:1;fill-rule:nonzero;stroke:none"
             id="path64" />
          <path
             d="m 4695.12,6585.87 c 0,-1067.94 -1834.58,-1884.34 -1912.83,-1918.24 -9.3,-4.7 -20.45,-6.42 -30.34,-6.42 -11.16,0 -21.26,1.72 -31.39,6.42 -77.24,33.9 -1912.283,850.3 -1912.283,1918.24 v 2608.98 c 0,42.09 34.246,76.8 76.567,76.8 1528.666,0 1866.856,665.17 1866.856,665.17 0,0 333.06,-665.17 1867.28,-665.17 42.33,0 76.14,-34.71 76.14,-76.8 z m 83.01,2884.93 c -1664.79,0 -2026.35,710 -2026.35,710 0,0 -367.64,-710 -2026.425,-710 -45.781,0 -82.839,-37.88 -82.839,-83.35 V 6555.81 c 0,-1159 1991.464,-2044.99 2075.504,-2082.17 11.26,-4.91 21.92,-6.98 33.89,-6.98 10.84,0 22.45,2.07 32.96,6.98 85.06,37.18 2076.2,923.17 2076.2,2082.17 v 2831.64 c -0.18,45.47 -37.19,83.35 -82.94,83.35"
             style="fill:#211d1d;fill-opacity:1;fill-rule:nonzero;stroke:none"
             id="path66" />
          <path
             d="m 1548.28,9279.64 c 0,0 -131.69,-75.57 -157.4,-209.69 -25.71,-134.14 90.4,-140.2 90.4,-140.2 0,0 195.17,16.21 323.32,70.43 0,0 148.2,57.55 133.45,-29.35 0.46,-13.65 97.86,154.08 -55.23,141.3 -324.47,-36.31 -354.82,-22.95 -354.82,-22.95 0,0 -100.14,23.72 20.28,190.46"
             style="fill:#fcca20;fill-opacity:1;fill-rule:nonzero;stroke:none"
             id="path68" />
          <path
             d="m 1588.73,9123.78 c 0,0 311.97,123.34 410.62,4.28 47.92,-133.93 -168.34,-275.01 -128.03,-434 23.83,-29.39 58.11,-111.02 219.07,-25.18 -59.72,1 -126.14,65.2 -58.21,236.03 4.15,41.5 286.27,493.22 -117.7,388 -263.62,-77.45 -325.75,-169.13 -325.75,-169.13"
             style="fill:#fcca20;fill-opacity:1;fill-rule:nonzero;stroke:none"
             id="path70" />
        </g>
      </g>
    </g>
  </g>
</svg>
