<?xml version="1.0" encoding="UTF-8" standalone="no"?>
<!-- Created with Inkscape (http://www.inkscape.org/) -->

<svg
   version="1.1"
   id="svg2"
   width="1943.4532"
   height="2632.4668"
   viewBox="0 0 1943.4532 2632.4668"
   sodipodi:docname="Smoking Lion Brand - Yellow.eps"
   xmlns:inkscape="http://www.inkscape.org/namespaces/inkscape"
   xmlns:sodipodi="http://sodipodi.sourceforge.net/DTD/sodipodi-0.dtd"
   xmlns="http://www.w3.org/2000/svg"
   xmlns:svg="http://www.w3.org/2000/svg">
  <defs
     id="defs6" />
  <sodipodi:namedview
     id="namedview4"
     pagecolor="#ffffff"
     bordercolor="#000000"
     borderopacity="0.25"
     inkscape:showpageshadow="2"
     inkscape:pageopacity="0.0"
     inkscape:pagecheckerboard="0"
     inkscape:deskcolor="#d1d1d1" />
  <g
     id="g8"
     inkscape:groupmode="layer"
     inkscape:label="ink_ext_XXXXXX"
     transform="matrix(1.3333333,0,0,-1.3333333,0,2632.4667)">
    <g
       id="g10"
       transform="scale(0.1)">
      <path
         d="m 14002.5,7322.4 c 0,-3690 -6338.8,-6510.9 -6609.16,-6627.998 -32.12,-16.203 -70.65,-22.203 -104.84,-22.203 -38.52,0 -73.44,6 -108.43,22.203 C 6913.18,811.5 572.738,3632.4 572.738,7322.4 v 9014.5 c 0,145.4 118.321,265.4 264.547,265.4 5281.845,0 6450.345,2298.3 6450.345,2298.3 0,0 1150.82,-2298.3 6451.87,-2298.3 146.3,0 263,-120 263,-265.4 z m 286.8,9967.9 c -5752.1,0 -7001.36,2453.2 -7001.36,2453.2 0,0 -1270.29,-2453.2 -7001.713,-2453.2 C 128.047,17290.3 0,17159.5 0,17002.4 v -9784 C 0,3213.9 6880.91,152.602 7171.28,24.1992 7210.2,7.19922 7247.02,0 7288.37,0 c 37.45,0 77.56,7.19922 113.87,24.1992 C 7696.18,152.602 14575.9,3213.9 14575.9,7218.4 v 9784 c -0.6,157.1 -128.4,287.9 -286.6,287.9"
         style="fill:#fcca20;fill-opacity:1;fill-rule:nonzero;stroke:none"
         id="path12" />
      <path
         d="m 644.465,16703.5 3426.075,345.9 2235.6,1050.9 964.12,877.3 845.11,-877.3 2365.63,-1209.9 3231.2,-316.1 H 13993 V 6961.4 L 13499,5171.9 11375.2,3096.6 9223.45,1553.8 7318.73,785.602 5115.6,1903.4 1510.75,4642 644.465,6542.4 v 10161.1"
         style="fill:#83171c;fill-opacity:1;fill-rule:nonzero;stroke:none"
         id="path14" />
      <path
         d="m 2006.76,16644.2 h 785.52 L 13712.2,6916.3 13843.6,6272.1 13079.8,4688.6 11971.3,3729.1 518.715,13946.9 l 125.75,2479.2"
         style="fill:#211d1d;fill-opacity:1;fill-rule:nonzero;stroke:none"
         id="path16" />
      <path
         d="m 7808.24,15337.8 c 0,0 229.84,-27.1 247.92,-207.4 18.01,-180.4 -144.23,-279.6 -234.42,-333.7 -90.19,-54.1 -18.01,-207.4 198.4,-108.2 216.33,99.2 360.55,383.3 270.43,599.7 -62.5,150 -286.36,334.7 -545.85,280.6 -259.55,-54.2 -200.27,-282.9 63.52,-231"
         style="fill:#fcca20;fill-opacity:1;fill-rule:nonzero;stroke:none"
         id="path18" />
      <path
         d="m 6691.54,15228.1 c -76.88,-33.1 -357.46,-110.9 -379.91,63.4 -25.74,199.8 211.76,175.8 211.76,175.8 182.6,3.4 324.6,138.7 324.6,138.7 30.45,-128.5 -40.58,-328.1 -156.45,-377.9 z m 1409.71,885 c 0,0 -937.72,153.3 -1118.03,-216.3 0,0 -432.81,-6.8 -581.47,-148.8 -148.8,-142 -162.37,-243.4 -277.29,-263.7 -114.93,-20.3 -696.52,13.5 -899.35,-169.1 -202.89,-182.6 -142.01,-365.2 -135.21,-459.8 6.71,-94.7 141.93,-412.5 351.55,-419.3 0,0 40.59,216.4 351.68,216.4 311.03,0 513.93,-27 581.54,-108.2 67.6,-81.2 108.2,-419.2 -121.72,-581.5 -229.91,-162.3 -554.51,-121.7 -595.1,0 -40.53,121.7 -315.6,133 -306.53,-107.1 9.01,-240 264.52,-411.4 537.99,-384.3 273.46,27 165.32,-108.2 -60.09,-180.3 -225.41,-72.2 -1388.53,-761.9 -1429.06,-2087.2 0,0 311.02,317.8 689.74,351.6 0,0 -94.7,960.2 676.15,1230.7 0,0 -1368.31,-1555.3 661.51,-2069.2 0,0 -192.62,545.5 -156.59,1059.4 36.09,514 604.11,1316.4 1325.37,1406.5 0,0 -1127.05,-712.3 -1036.86,-1415.5 90.19,-703.3 694.24,-1136.1 694.24,-1136.1 0,0 -54.1,349.4 534.22,1181.1 588.25,831.8 608.55,1068.4 581.53,1900.2 0,0 173.53,-72.2 200.54,-324.6 27.08,-252.4 99.33,-881.5 -162.23,-1197 -261.5,-315.5 -739.33,-1045.8 -739.33,-1045.8 0,0 1113.46,-76.6 1424.56,910.7 311.03,987.2 99.2,2159.4 -450.82,2560.6 0,0 351.69,-18.1 509.49,-248 157.73,-229.9 108.13,-554.6 202.83,-559 94.69,-4.4 423.73,1943.1 -1253.26,2303.6"
         style="fill:#fcca20;fill-opacity:1;fill-rule:nonzero;stroke:none"
         id="path20" />
      <path
         d="m 6766.81,10798.1 c 0,0 40.26,-311 155.45,-419.2 0,0 -822.6,72.2 -1174.22,315.6 -351.62,243.4 -441.74,577 -667.15,586 -225.41,8.9 -599.62,-315.6 -1005.34,-649.2 -405.72,-333.6 -811.44,-685.21 -1244.25,-712.23 -432.74,-27.01 -311.02,504.73 -554.44,540.83 -243.42,36.1 -703.31,-378.5 -559.03,-658.03 0,0 162.31,198.23 288.52,126.21 126.28,-72.05 180.31,-243.48 81.19,-279.48 -99.2,-36.1 -441.75,-45.1 -360.63,-405.7 81.12,-360.7 324.54,-396.7 441.74,-387.7 0,0 -333.54,423.7 90.2,468.8 0,0 -72.19,-723.5 613.05,-469.9 0,0 -207.27,82.2 -225.35,262.5 -18.07,180.4 108.21,234.4 315.54,234.4 207.33,0 306.59,-72.1 306.59,-180.3 0,-108.2 -99.26,-189.3 -99.26,-189.3 0,0 288.58,-72.1 414.79,54.1 126.21,126.2 378.64,613.1 540.94,595 162.3,-18 -99.19,-369.7 -99.19,-369.7 0,0 315.59,-17.9 423.8,126.3 108.13,144.2 207.4,414.63 324.53,396.62 117.21,-18.01 18.08,-423.62 18.08,-423.62 0,0 216.4,-18.3 360.62,180.2 144.23,198.4 108.14,387.64 261.44,378.64 153.29,-9.01 1027.84,-1230.54 1595.87,-1582.24 568.02,-351.5 1676.99,-743.8 1690.5,-1284.8 13.51,-540.9 -888.06,-1036.8 -725.76,-1577.8 162.3,-541 1009.83,-739.3 1027.84,-1172.1 18.01,-432.8 -387.71,-1334.4 -658.21,-1307.4 -270.5,27.1 -18.08,523 -180.38,604.2 -162.23,81.2 -784.36,-72.1 -847.47,-550 0,0 324.61,198.3 432.81,90.1 108.14,-108.2 153.23,-369.6 18.01,-396.6 -135.28,-27 -730.32,-356.2 -87.9,-694.2 0,0 -33.87,304.2 270.44,277.2 304.3,-27.1 135.28,-432.8 405.72,-527.5 270.5,-94.6 392.21,54.1 392.21,54.1 0,0 -169.03,54.1 -162.23,148.8 6.71,94.7 50.67,189.3 152.08,202.9 101.42,13.4 209.61,169 229.91,375.2 20.3,206.2 161.23,487.8 355.05,524 193.82,36.1 626.56,121.7 775.38,369.7 0,0 -281.75,-38.3 -275.03,90.2 6.79,128.5 277.33,135.3 412.53,243.5 135.2,108.2 358.4,365.1 405.7,513.9 0,0 -259.2,-90.3 -340.3,17.9 -81.1,108.2 540.9,595.1 414.7,973.7 0,0 -99.2,-135.3 -351.6,-153.2 -252.4,-18 -568.05,225.4 -649.17,360.7 -81.18,135.3 -189.38,360.7 117.21,604.1 306.56,243.5 558.96,423.8 586.06,541 27,117.2 63.2,261.5 126.3,234.4 63,-27 319.9,-306.6 779.7,-252.5 459.9,54.1 852.1,473.3 825.1,1054.9 -27.1,581.5 -392.2,1108.9 -865.6,1514.7 -473.3,405.7 -1244.2,982.7 -1280.3,1253.2 -36.04,270.5 -31.6,748.3 27.1,838.6 58.6,90.1 202.8,112.7 202.8,-31.6 0,-144.3 83.4,-890.4 509.4,-1221.7 426,-331.3 730.3,0 750.6,128.5 0,0 -162.3,-74.3 -236.7,67.6 -74.3,142.1 27.1,1284.8 -398.9,1535 -426,250.2 -1102.24,148.8 -1169.85,-493.6 -67.61,-642.4 27.08,-1246.6 586.05,-1769.5 559,-522.9 1343.4,-1226.2 1361.4,-1803.3 18.1,-576.9 -459.8,-613 -667.2,-315.5 -207.3,297.5 -207.3,595 -423.7,847.5 -216.4,252.6 -1785.13,1379.5 -1956.51,1677.08 -171.31,297.42 -252.49,1036.82 -252.49,1036.82 0,0 -327.43,-54.9 -432.74,-54 -135.22,1.2 -384.01,22.6 -384.01,22.6 0,0 -55.52,-507.3 32.39,-656.1 0,0 -703.25,223.3 -784.43,520.7"
         style="fill:#fcca20;fill-opacity:1;fill-rule:nonzero;stroke:none"
         id="path22" />
      <path
         d="m 7104.99,8012.2 c 0,0 -960.23,-703.3 -879.12,-1082 81.19,-378.6 351.63,-622.1 365.2,-851.9 13.51,-230 -912.93,-1082.1 -1305.07,-906.2 -392.22,175.8 -128.5,261.2 -74.4,283.9 54.04,22.6 112.71,491.5 -180.31,523.1 -293.09,31.4 -608.62,0 -689.74,-216.4 0,0 306.6,27 351.62,-63.2 45.03,-90.1 99.2,-351.5 -81.11,-360.5 -180.31,-9.1 -234.48,135.2 -342.62,117.1 -108.2,-18 -477.9,-378.5 -333.61,-658.1 0,0 281.73,211.8 430.46,130.6 148.79,-81.1 229.97,-141.9 182.59,-202.8 -47.31,-60.9 -236.63,-209.7 -141.94,-419.2 94.63,-209.7 283.95,-351.7 283.95,-351.7 0,0 20.29,466.6 182.6,426 162.23,-40.5 87.91,-169.1 87.91,-169.1 0,0 229.91,-40.5 338.11,148.9 108.2,189.3 91.06,256.9 204.44,256.9 113.37,0 607,94.6 674.61,-20.3 67.61,-114.9 353.91,-160.1 669.43,-51.9 0,0 -162.3,108.1 -135.21,180.3 27.02,72.1 955.67,-99.2 1045.79,81.2 0,0 -495.85,189.3 -369.63,351.6 126.21,162.2 334.21,-84.6 468.83,90.3 0,0 -198.33,9.1 -198.33,351.6 0,342.6 63.17,522.9 297.52,730.3 234.41,207.4 441.81,360.7 414.73,739.4 -27.02,378.8 -1266.7,942.1 -1266.7,942.1"
         style="fill:#fcca20;fill-opacity:1;fill-rule:nonzero;stroke:none"
         id="path24" />
      <path
         d="m 4792.37,12858.3 c 0,0 -378.7,-18.1 -703.31,81.1 -324.6,99.2 -1136.04,748.4 -1117.97,1000.7 18.01,252.5 29.3,374.3 178.03,387.8 148.79,13.6 55.72,412.5 -178.36,480.1 -234.08,67.6 -612.79,20.3 -639.8,-121.6 0,0 162.3,47.2 196.1,-30.5 33.74,-77.7 -33.8,-260.4 -33.8,-260.4 0,0 -196.11,257 -412.51,260.4 -216.41,3.3 -574.75,-422.6 -317.82,-652.6 0,0 182.53,290.9 283.95,230 101.48,-60.9 182.59,-257 74.46,-263.7 -108.2,-6.8 -216.4,20.3 -257,-54.1 -40.52,-74.4 -148.72,-513.9 223.2,-493.6 0,0 20.29,148.7 141.93,162.2 121.72,13.6 229.91,-54.1 263.79,-196.1 33.8,-142 -128.5,-344.9 -304.31,-270.5 0,0 142.01,-349.5 538.72,-439.6 396.72,-90.1 477.77,-108.2 468.83,-216.4 -9.01,-108.2 -180.32,-171.3 -234.41,-117.2 -54.1,54.1 162.3,-297.6 495.91,-342.6 333.54,-45.1 297.52,-90.1 288.51,-144.2 -9.07,-54.1 -279.58,-54.1 -279.58,-54.1 0,0 90.27,-324.5 721.33,-261.4 0,0 81.11,1027.9 604.11,1316.3"
         style="fill:#fcca20;fill-opacity:1;fill-rule:nonzero;stroke:none"
         id="path26" />
      <path
         d="m 13748.1,7388.1 c 0,-3549.8 -6098.14,-6263.5 -6358.23,-6376.2 -30.9,-15.599 -67.96,-21.298 -100.85,-21.298 -37.07,0 -70.66,5.699 -104.32,21.298 C 6927.94,1124.6 828.297,3838.3 828.297,7388.1 v 8672.2 c 0,139.9 113.832,255.3 254.503,255.3 5081.26,0 6205.38,2211 6205.38,2211 0,0 1107.11,-2211 6206.82,-2211 140.7,0 253.1,-115.4 253.1,-255.3 z m 275.9,9589.5 c -5533.71,0 -6735.53,2360 -6735.53,2360 0,0 -1222.05,-2360 -6735.802,-2360 -152.172,0 -275.355,-125.9 -275.355,-277.1 V 7288.2 c 0,-3852.5 6619.587,-6797.501 6898.927,-6921.098 37.44,-16.301 72.86,-23.2 112.65,-23.2 36.02,0 74.61,6.899 109.55,23.2 C 7681.21,490.699 14299.7,3435.7 14299.7,7288.2 v 9412.3 c -0.6,151.2 -123.6,277.1 -275.7,277.1"
         style="fill:#211d1d;fill-opacity:1;fill-rule:nonzero;stroke:none"
         id="path28" />
      <path
         d="m 3288.06,16342.1 c 0,0 -437.73,-251.1 -523.2,-697 -85.46,-445.8 300.48,-466 300.48,-466 0,0 648.75,53.9 1074.71,234.2 0,0 492.64,191.3 443.58,-97.6 1.53,-45.4 325.29,512.1 -183.58,469.7 -1078.52,-120.7 -1179.41,-76.3 -1179.41,-76.3 0,0 -332.87,78.8 67.42,633"
         style="fill:#fcca20;fill-opacity:1;fill-rule:nonzero;stroke:none"
         id="path30" />
      <path
         d="m 3422.5,15824.1 c 0,0 1037,410 1364.91,14.2 159.26,-445.2 -559.58,-914.1 -425.59,-1442.6 79.23,-97.7 193.15,-369 728.19,-83.7 -198.49,3.3 -419.27,216.7 -193.5,784.6 13.8,137.9 951.57,1639.4 -391.23,1289.7 -876.24,-257.5 -1082.78,-562.2 -1082.78,-562.2"
         style="fill:#fcca20;fill-opacity:1;fill-rule:nonzero;stroke:none"
         id="path32" />
    </g>
  </g>
</svg>
