<?xml version="1.0" encoding="UTF-8" standalone="no"?>
<!-- Created with Inkscape (http://www.inkscape.org/) -->

<svg
   version="1.1"
   id="svg2"
   width="215"
   height="90"
   viewBox="0 0 3047.1868 758.67999"
   sodipodi:docname="smoking lion horiz yellow (1).eps"
   xmlns:inkscape="http://www.inkscape.org/namespaces/inkscape"
   xmlns:sodipodi="http://sodipodi.sourceforge.net/DTD/sodipodi-0.dtd"
   xmlns="http://www.w3.org/2000/svg"
   xmlns:svg="http://www.w3.org/2000/svg">
  <defs
     id="defs6">
    <clipPath
       clipPathUnits="userSpaceOnUse"
       id="clipPath50">
      <path
         d="M 0,5690 H 4201 V 0 H 0 Z"
         id="path48" />
    </clipPath>
  </defs>
  <sodipodi:namedview
     id="namedview4"
     pagecolor="#ffffff"
     bordercolor="#000000"
     borderopacity="0.25"
     inkscape:showpageshadow="2"
     inkscape:pageopacity="0.0"
     inkscape:pagecheckerboard="0"
     inkscape:deskcolor="#d1d1d1" />
  <g
     id="g8"
     inkscape:groupmode="layer"
     inkscape:label="ink_ext_XXXXXX"
     transform="matrix(1.3333333,0,0,-1.3333333,0,758.68)">
    <g
       id="g10"
       transform="scale(0.1)">
      <path
         d="m 7076.62,4817.23 c 37.03,-8.84 71.41,-27.77 103.16,-56.87 31.74,-29.09 58.18,-61.29 79.35,-96.54 21.16,-35.29 36.57,-70.55 46.29,-105.8 9.66,-35.29 12.77,-63.48 9.25,-84.64 -3.55,-21.16 -11.03,-33.06 -22.48,-35.71 -11.49,-2.65 -26.9,-0.45 -46.29,6.61 -19.42,7.03 -41.9,16.74 -67.45,29.1 -25.57,12.32 -54.22,22.02 -85.95,29.09 -61.75,14.1 -135.81,26.87 -222.19,38.36 -86.42,11.45 -179.87,21.16 -280.37,29.09 -100.51,7.93 -206.77,14.1 -318.73,18.52 -112,4.38 -225.28,5.7 -339.89,3.97 -3.55,-58.2 -7.52,-131.84 -11.9,-220.86 -4.42,-89.07 -9.71,-186.48 -15.87,-292.28 -6.2,-105.8 -11.9,-216.47 -17.19,-331.95 -5.29,-115.51 -9.71,-228.79 -13.23,-339.89 -3.55,-111.09 -6.19,-216.89 -7.93,-317.4 -1.78,-100.51 -1.78,-187.79 0,-261.85 1.74,-104.07 11,-190.9 27.77,-260.54 16.74,-69.68 29.97,-125.64 39.68,-167.96 9.67,-42.32 11.45,-72.73 5.29,-91.25 -6.21,-18.51 -30.42,-27.77 -72.74,-27.77 -61.75,-1.74 -115.52,20.74 -161.35,67.44 -45.88,46.75 -84.23,110.64 -115.06,191.77 -30.86,81.08 -55.13,175.89 -72.73,284.34 -17.65,108.44 -30.88,223.92 -39.68,346.5 -8.85,122.54 -14.14,248.63 -15.87,378.24 -1.77,129.6 -1.32,256.1 1.32,379.56 2.65,123.4 7.03,240.69 13.22,351.79 6.17,111.08 11.91,208.04 17.2,290.94 -123.45,-10.57 -239.78,-25.57 -349.14,-44.96 -109.32,-19.42 -206.32,-43.64 -290.96,-72.74 -84.63,-29.09 -152.96,-63.48 -204.99,-103.16 -51.99,-39.66 -82.4,-85.95 -91.25,-138.85 -3.51,-15.87 -9.25,-28.69 -17.19,-38.36 -7.93,-9.71 -16.28,-15.46 -25.13,-17.19 -8.8,-1.78 -16.28,0.87 -22.48,7.93 -6.16,7.03 -7.48,20.25 -3.97,39.68 15.87,95.22 54.22,178.95 115.06,251.28 60.83,72.28 136.67,134.44 227.47,186.47 90.84,51.99 194.41,95.21 310.79,129.61 116.38,34.39 238.92,61.24 367.66,80.66 0,17.61 1.32,33.07 3.97,46.29 2.64,13.24 8.8,24.68 18.51,34.39 9.68,9.67 23.81,17.19 42.33,22.49 18.51,5.28 44.51,7.93 78.02,7.93 31.74,0 63.48,-7.07 95.23,-21.16 31.74,-14.14 59.92,-31.74 84.64,-52.91 121.67,8.81 242.43,12.78 362.36,11.91 119.89,-0.91 234.5,-4.87 343.86,-11.91 109.31,-7.05 209.82,-16.77 301.53,-29.09 91.67,-12.35 171.02,-26.45 238.05,-42.32"
         style="fill:#fcca20;fill-opacity:1;fill-rule:nonzero;stroke:none"
         id="path12" />
      <path
         d="m 7253.82,2315.04 c 0,-77.58 3.06,-139.28 9.26,-185.15 6.15,-45.83 12.77,-82.41 19.84,-109.77 7.03,-27.31 13.64,-47.16 19.83,-59.51 6.16,-12.32 9.26,-23.81 9.26,-34.39 0,-24.67 -20.74,-41.86 -62.16,-51.58 -41.45,-9.67 -87.29,-5.7 -137.54,11.91 -50.25,17.64 -96.12,51.58 -137.54,101.83 -41.45,50.26 -62.16,122.99 -62.16,218.21 0,95.23 4.39,197.92 13.23,308.15 8.8,110.18 18.51,215.99 29.1,317.4 10.57,101.38 20.24,191.77 29.09,271.11 8.8,79.36 13.22,134.91 13.22,166.65 0,31.73 -5.28,58.19 -15.87,79.34 -10.57,21.16 -22.94,38.77 -37.03,52.9 -15.87,15.87 -32.65,28.2 -50.25,37.03 -31.74,-139.31 -59.1,-270.7 -81.99,-394.1 -10.59,-52.9 -20.3,-107.13 -29.11,-162.67 -8.83,-55.55 -17.18,-109.36 -25.12,-161.35 -7.93,-52.03 -14.13,-100.1 -18.52,-144.15 -4.42,-44.1 -6.61,-81.14 -6.61,-111.1 0,-17.64 -7.06,-30.87 -21.16,-39.66 1.74,-14.14 -5.74,-23.4 -22.48,-27.78 -16.78,-4.38 -46.29,-6.62 -88.61,-6.62 -75.84,0 -136.68,26.87 -182.51,80.68 -45.88,53.76 -81.13,124.73 -105.8,212.92 -24.71,88.16 -40.12,189.13 -46.29,302.86 -6.2,113.74 -7.07,230.98 -2.64,351.78 4.38,120.77 13.22,239.8 26.45,357.08 13.23,117.25 26.45,223.92 39.67,320.05 13.23,96.1 24.68,176.77 34.4,242.02 9.66,65.22 14.54,105.8 14.54,121.67 0,10.58 -1.32,23.81 -3.97,39.68 -2.65,15.87 -2.65,31.28 0,46.29 2.65,14.96 9.67,28.18 21.16,39.67 11.45,11.45 30.42,17.2 56.87,17.2 17.61,0 42.73,-2.65 75.38,-7.94 32.61,-5.29 63.9,-14.13 93.9,-26.45 29.97,-12.35 56.41,-28.68 79.35,-48.93 22.9,-20.3 34.39,-45.42 34.39,-75.39 0,-19.42 -3.97,-55.13 -11.91,-107.12 -7.93,-52.04 -18.09,-115.06 -30.42,-189.12 -12.35,-74.06 -25.57,-156.51 -39.67,-247.31 -14.14,-90.84 -27.36,-185.15 -39.67,-283.02 -12.36,-97.86 -22.48,-197.05 -30.42,-297.57 -7.93,-100.5 -11.91,-197.5 -11.91,-290.94 0,-65.26 4.39,-123.45 13.23,-174.57 8.8,-51.17 20.25,-96.14 34.39,-134.91 8.8,47.62 19.83,102.71 33.06,165.33 13.23,62.56 28.64,126.95 46.28,193.08 17.61,66.13 35.72,131.34 54.23,195.73 18.52,64.35 37.02,122.08 55.54,173.25 18.52,51.12 36.12,92.13 52.9,122.99 16.74,30.84 32.16,46.29 46.29,46.29 22.9,0 56.42,-4.42 100.52,-13.23 44.05,-8.84 88.15,-23.8 132.24,-44.96 44.07,-21.16 82.01,-49.84 113.74,-85.97 31.74,-36.16 47.61,-80.67 47.61,-133.57 0,-54.68 -2.65,-122.99 -7.93,-204.98 -5.29,-82 -10.58,-167.55 -15.88,-256.57 -5.28,-89.07 -10.57,-176.35 -15.87,-261.86 -5.28,-85.56 -7.93,-159.12 -7.93,-220.86"
         style="fill:#fcca20;fill-opacity:1;fill-rule:nonzero;stroke:none"
         id="path14" />
      <path
         d="m 8092.29,3669.29 c -35.29,0 -67.03,-12.35 -95.22,-37.03 -28.23,-24.71 -52.9,-57.32 -74.07,-97.86 -21.15,-40.59 -38.8,-87.29 -52.9,-140.19 -14.13,-52.9 -24.7,-108.45 -31.74,-166.64 56.42,-24.72 104.9,-30.42 145.48,-17.19 40.55,13.23 74.07,36.12 100.51,68.77 26.46,32.61 45.84,71.42 58.19,116.38 12.32,44.97 18.52,87.71 18.52,128.28 0,40.55 -5.74,74.93 -17.2,103.17 -11.48,28.18 -28.68,42.31 -51.57,42.31 z m 497.27,-468.16 c 5.28,12.31 11.44,20.7 18.51,25.12 7.02,4.38 14.09,5.29 21.16,2.65 7.03,-2.65 12.32,-8.39 15.87,-17.2 3.51,-8.85 2.64,-20.29 -2.64,-34.38 -3.56,-8.85 -10.59,-32.2 -21.17,-70.09 -10.57,-37.94 -26.03,-82.91 -46.28,-134.9 -20.3,-52.03 -45.87,-107.12 -76.71,-165.32 -30.87,-58.19 -67.44,-112 -109.77,-161.34 -42.31,-49.39 -91.25,-89.93 -146.8,-121.67 -55.54,-31.74 -117.7,-47.61 -186.47,-47.61 -91.71,0 -174.16,18.52 -247.32,55.55 -73.19,37.02 -134.89,84.64 -185.14,142.82 -50.26,58.19 -88.61,122.09 -115.06,191.77 -26.46,69.64 -39.68,137.96 -39.68,204.99 0,86.37 9.67,169.69 29.1,249.95 19.38,80.22 43.19,153.83 71.41,220.86 28.19,67 58.61,125.18 91.26,174.58 32.61,49.34 62.16,86.37 88.6,111.08 26.46,22.9 60.84,40.09 103.16,51.58 42.32,11.45 85.06,17.61 128.29,18.52 43.18,0.87 84.18,-1.33 122.99,-6.61 38.77,-5.3 68.77,-13.23 89.93,-23.81 40.55,-19.42 73.6,-56.87 99.19,-112.41 25.54,-55.55 38.35,-120.35 38.35,-194.42 0,-139.31 -29.09,-244.66 -87.29,-316.07 -58.18,-71.42 -130.51,-107.13 -216.88,-107.13 -31.75,0 -64.81,3.52 -99.19,10.59 -34.39,7.02 -65.71,14.96 -93.9,23.79 -5.29,-65.25 0,-129.6 15.87,-193.08 15.87,-63.48 37.44,-119.93 64.8,-169.28 27.32,-49.38 59.06,-89.52 95.22,-120.35 36.12,-30.87 72.73,-46.29 109.77,-46.29 56.41,0 106.67,12.77 150.77,38.36 44.05,25.54 83.32,57.73 117.7,96.54 34.39,38.76 63.48,81.09 87.29,126.96 23.8,45.84 44.05,89.48 60.83,130.93 16.74,41.41 29.1,77.57 37.03,108.44 7.94,30.84 13.64,49.81 17.2,56.88"
         style="fill:#fcca20;fill-opacity:1;fill-rule:nonzero;stroke:none"
         id="path16" />
      <path
         d="m 10583.9,4997.09 c 59.9,0 113.3,-14.54 160,-43.64 46.7,-29.09 86.8,-65.25 120.3,-108.45 33.5,-43.22 60.4,-90.38 80.7,-141.5 20.3,-51.16 33.5,-98.32 39.7,-141.51 6.1,-43.23 5.3,-79.35 -2.7,-108.45 -7.9,-29.09 -22.4,-43.64 -43.6,-43.64 -15.9,0 -36.2,8.8 -60.8,26.45 -24.8,17.61 -54.3,36.57 -88.6,56.87 -34.4,20.25 -73.2,39.21 -116.4,56.86 -43.3,17.61 -91.3,26.46 -144.2,26.46 -79.3,0 -164.4,-18.98 -255.2,-56.87 -90.9,-37.94 -179,-85.1 -264.5,-141.51 -85.58,-56.46 -165.33,-117.29 -239.4,-182.5 -74.06,-65.27 -133.16,-126.1 -177.21,-182.51 -44.1,-56.46 -70.55,-103.62 -79.36,-141.52 -8.84,-37.94 9.67,-56.86 55.55,-56.86 29.96,0 70.1,9.26 120.35,27.77 50.25,18.52 110.18,39.22 179.86,62.16 69.64,22.89 148.51,43.64 236.71,62.16 88.2,18.51 186.9,27.77 296.3,27.77 142.8,0 256.5,-15.46 341.2,-46.29 84.6,-30.87 149.8,-70.09 195.7,-117.7 45.8,-47.61 75.8,-100.1 89.9,-157.38 14.1,-57.32 21.2,-111.55 21.2,-162.67 0,-121.67 -22.1,-237.64 -66.1,-347.82 -44.1,-110.22 -102.8,-212.05 -175.9,-305.5 -73.2,-93.49 -157,-177.67 -251.3,-252.6 -94.4,-74.97 -192.2,-138.45 -293.6,-190.44 -101.4,-51.99 -202.8,-92.13 -304.17,-120.35 -101.43,-28.18 -195.33,-42.32 -281.7,-42.32 -42.33,0 -90.39,9.71 -144.15,29.1 -53.82,19.42 -103.62,48.92 -149.45,88.6 -45.88,39.68 -84.65,89.02 -116.38,148.13 -31.74,59.05 -47.61,128.28 -47.61,207.63 0,42.32 8.84,72.74 26.44,91.25 17.61,18.52 37.04,26.87 58.2,25.13 21.16,-1.78 40.54,-12.35 58.19,-31.74 17.61,-19.42 26.45,-45.88 26.45,-79.35 0,-30 8.35,-55.13 25.12,-75.39 16.74,-20.29 37.45,-36.16 62.16,-47.6 24.68,-11.5 50.68,-19.43 78.03,-23.81 27.32,-4.42 50.67,-6.61 70.1,-6.61 52.9,0 113.73,12.31 182.51,37.03 68.77,24.67 139.27,58.6 211.56,101.83 72.3,43.19 143.3,94.31 213,153.41 69.6,59.07 131.8,122.54 186.4,190.44 54.7,67.86 98.8,138.41 132.3,211.6 33.5,73.16 50.2,146.8 50.2,220.86 0,49.35 -2.6,95.64 -7.9,138.87 -5.3,43.18 -15.9,81.08 -31.7,113.73 -15.9,32.62 -38,58.19 -66.2,76.71 -28.2,18.52 -65.2,27.77 -111.1,27.77 -105.8,0 -205.4,-12.35 -298.8,-37.03 -93.53,-24.71 -176.39,-51.57 -248.67,-80.67 -72.33,-29.09 -132.71,-55.55 -181.18,-79.35 -48.53,-23.81 -81.59,-35.71 -99.19,-35.71 -35.3,0 -70.1,7.94 -104.49,23.81 -34.38,15.87 -64.8,36.57 -91.25,62.16 -26.45,25.53 -48.06,53.31 -64.8,83.32 -16.78,29.96 -25.13,59.05 -25.13,87.28 0,70.51 20.71,147.21 62.16,230.12 41.41,82.86 96.54,166.18 165.31,249.95 68.77,83.73 148.13,163.99 238.06,240.7 89.93,76.7 183.37,145.02 280.38,204.98 96.9,59.93 194.4,108 292.3,144.17 97.8,36.12 189.9,54.21 276.4,54.21"
         style="fill:#fcca20;fill-opacity:1;fill-rule:nonzero;stroke:none"
         id="path18" />
      <path
         d="m 12734.3,2891.65 c 0,-95.21 4.8,-175.02 14.5,-239.37 9.7,-64.39 17.6,-115.97 23.8,-154.74 6.2,-38.8 7.5,-66.57 4,-83.31 -3.6,-16.74 -19.4,-25.13 -47.6,-25.13 -44.1,0 -82.5,10.17 -115.1,30.41 -32.6,20.26 -60.8,47.62 -84.6,82.01 -23.8,34.38 -44.1,72.73 -60.9,115.06 -16.7,42.31 -30.4,86.37 -41,132.24 -24.7,105.8 -37.9,225.69 -39.6,359.73 -40.6,-126.96 -79.4,-238.97 -116.4,-335.92 -15.9,-42.32 -32.2,-83.77 -48.9,-124.32 -16.8,-40.58 -33.6,-76.29 -50.3,-107.12 -16.8,-30.87 -32.2,-56 -46.3,-75.39 -14.1,-19.42 -26.4,-29.09 -37,-29.09 -21.2,0 -49,3.06 -83.3,9.26 -34.4,6.15 -67.9,19.38 -100.5,39.68 -32.7,20.24 -60.9,48.47 -84.7,84.64 -23.8,36.12 -35.7,83.32 -35.7,141.5 0,38.77 3.5,91.67 10.6,158.7 7,67 14.5,138.41 22.5,214.25 7.9,75.8 16.2,152.96 25.1,231.44 8.8,78.44 15.4,149.45 19.8,212.92 4.4,63.49 4.9,115.06 1.4,154.74 -3.6,39.68 -12.4,59.51 -26.5,59.51 -26.4,0 -51.2,-24.26 -74.1,-72.73 -22.9,-48.53 -44.9,-111.55 -66.1,-189.12 -21.1,-77.62 -41.4,-164.45 -60.8,-260.54 -19.4,-96.13 -38,-191.35 -55.6,-285.66 -17.6,-94.36 -34.3,-183.42 -50.2,-267.15 -15.9,-83.77 -30.9,-151.22 -45,-202.35 8.8,-35.29 11.9,-59.96 9.3,-74.06 -2.7,-14.09 -20.8,-21.15 -54.2,-21.15 -60,0 -109.8,18.51 -149.5,55.55 -39.7,37.02 -71,85.04 -93.9,144.15 -22.9,59.05 -39.3,126.05 -48.9,201.01 -9.7,74.93 -16.3,149.45 -19.9,223.51 -3.5,74.06 -4.3,145.03 -2.6,212.93 1.8,67.86 2.6,124.72 2.6,170.6 0,19.39 -5.3,32.61 -15.8,39.67 -10.6,7.03 -15.9,20.25 -15.9,39.68 0,19.38 19.4,31.29 58.2,35.71 38.8,4.38 81.5,1.73 128.3,-7.94 46.7,-9.71 89.4,-26.9 128.3,-51.57 38.7,-24.72 58.1,-56.46 58.1,-95.22 0,-77.62 -4.8,-160.48 -14.5,-248.64 -9.7,-88.19 -14.5,-179.86 -14.5,-275.08 0,-19.43 0,-37.94 0,-55.54 0,-17.65 0.8,-33.53 2.6,-47.62 8.8,54.64 20.7,121.67 35.6,201.03 15,79.35 32.5,162.66 52.8,249.95 20.2,87.28 43.1,174.12 68.6,260.53 25.6,86.38 53.3,164 83.2,232.77 29.9,68.77 62,124.31 96.3,166.64 34.3,42.31 70.9,63.47 109.6,63.47 75.7,0 133.7,-26.45 174.2,-79.35 40.5,-52.9 68.6,-119.02 84.5,-198.37 15.8,-79.36 23.3,-164.9 22.5,-256.57 -1,-91.71 -4.9,-177.22 -11.9,-256.56 -7.1,-79.36 -14.1,-145.48 -21.2,-198.38 -7,-52.9 -7.9,-79.36 -2.6,-79.36 5.3,0 14.1,15.87 26.4,47.62 12.3,31.74 27.3,71.41 44.9,119.02 17.6,47.61 37.8,99.6 60.7,156.06 22.8,56.41 46.2,108.44 69.9,156.05 23.8,47.62 47.5,87.29 71.3,119.03 23.8,31.74 47.1,47.61 70,47.61 33.4,0 67.3,-2.64 101.6,-7.94 34.3,-5.28 65.1,-14.54 92.4,-27.77 27.3,-13.22 49.7,-31.32 67.3,-54.22 17.6,-22.94 26.4,-52.03 26.4,-87.29 0,-44.1 -5.3,-98.77 -15.9,-163.99 -10.5,-65.25 -15.8,-141.96 -15.8,-230.12"
         style="fill:#fcca20;fill-opacity:1;fill-rule:nonzero;stroke:none"
         id="path20" />
      <path
         d="m 13469.6,2526.64 c 28.1,0 55.5,27.36 82,82.16 26.4,54.81 49.3,123.74 68.7,206.81 19.4,83.07 34,172.79 43.7,269.13 9.6,96.3 11.9,186.02 6.6,269.09 -5.3,83.07 -19.4,152.01 -42.3,206.81 -23,54.8 -58.2,82.2 -105.8,82.2 -21.2,0 -36.2,-15.04 -45,-45.08 -8.9,-30.05 -16.8,-64.97 -23.8,-104.73 -7.1,-39.77 -15.9,-79.97 -26.5,-120.64 -10.5,-40.67 -27.3,-71.59 -50.2,-92.79 0,-79.55 -2.7,-163.53 -8,-251.89 -5.2,-88.36 -7.5,-169.7 -6.6,-243.92 0.9,-74.23 8.8,-135.64 23.8,-184.25 15,-48.6 42.8,-72.9 83.4,-72.9 z m 71.4,1277.55 c 38.7,0 74.9,-9.71 108.4,-29.1 33.5,-19.42 62.6,-51.16 87.3,-95.21 24.7,-44.11 44.5,-100.97 59.5,-170.61 15,-69.68 22.5,-154.74 22.5,-255.24 0,-100.52 -8.8,-202.35 -26.4,-305.51 -17.7,-103.16 -45.9,-196.18 -84.7,-279.04 -38.8,-82.91 -88.6,-150.36 -149.4,-202.35 -60.9,-52.03 -134.5,-78.03 -220.9,-78.03 -77.6,0 -141.5,19.84 -191.8,59.52 -50.2,39.66 -89.9,89.93 -119,150.76 -29.1,60.84 -48.9,127.83 -59.5,201.02 -10.6,73.16 -15.9,143.25 -15.9,210.28 0,61.71 3.5,125.64 10.6,191.76 7,66.13 19.4,127.38 37,183.83 17.7,56.42 42.4,104.9 74.1,145.48 31.7,40.55 71.4,66.12 119,76.71 15.9,44.05 37.1,79.35 63.5,105.8 26.5,26.45 55.6,46.29 87.3,59.51 31.7,13.23 64.8,21.57 99.2,25.13 34.4,3.52 67.4,5.29 99.2,5.29"
         style="fill:#fcca20;fill-opacity:1;fill-rule:nonzero;stroke:none"
         id="path22" />
      <path
         d="m 14411.2,3127.06 c 88.1,14.1 160,44.52 215.5,91.25 55.6,46.7 99.2,97.42 131,152.09 31.7,54.64 53.3,105.35 64.8,152.09 11.4,46.7 17.2,77.12 17.2,91.25 0,52.9 -16.4,80.23 -49,82.01 -32.6,1.72 -71.8,-18.52 -117.7,-60.84 -45.8,-42.32 -93,-106.71 -141.5,-193.09 -48.5,-86.42 -88.6,-191.35 -120.3,-314.76 z m 1177,-1087.11 c 28.2,0 47.2,-7.48 56.9,-22.48 9.6,-14.96 8.3,-31.29 -4,-48.93 -12.4,-17.6 -35.7,-33.93 -70.1,-48.93 -34.4,-14.96 -80.7,-22.49 -138.8,-22.49 -109.4,0 -203.7,25.59 -283.1,76.71 -79.3,51.16 -148.5,115.52 -207.6,193.09 -59.1,77.61 -111.1,162.25 -156.1,253.92 -44.9,91.66 -87.7,178.54 -128.2,260.54 -40.6,81.99 -82,152.5 -124.4,211.6 -42.3,59.05 -90.8,94.77 -145.4,107.12 -14.2,-67.03 -22.1,-138.45 -23.8,-214.25 12.3,-82.9 27.3,-149.03 44.9,-198.38 17.6,-49.38 31.3,-87.28 41,-113.73 9.7,-26.45 13.2,-44.1 10.6,-52.9 -2.6,-8.84 -16.3,-13.22 -41,-13.22 -51.2,0 -103.1,14.96 -156,44.96 -52.9,29.96 -100.6,75.8 -142.9,137.54 -42.3,61.71 -77.1,141.05 -104.5,238.06 -27.3,96.95 -41,211.6 -41,343.84 0,42.33 2.2,100.93 6.7,175.9 4.3,74.93 10.1,156.06 17.1,243.34 7.1,87.29 14.1,176.77 21.2,268.47 7,91.67 14.1,175.9 21.2,252.61 7,76.7 12.7,141.5 17.2,194.4 4.3,52.9 6.6,84.64 6.6,95.23 0,22.89 9.6,39.67 29.1,50.25 19.3,10.58 43.6,16.28 72.7,17.2 29.1,0.86 60.8,-3.11 95.2,-11.91 34.4,-8.84 66.2,-20.75 95.2,-35.71 29.1,-15 53.4,-33.06 72.8,-54.22 19.4,-21.16 29.1,-43.23 29.1,-66.12 0,-31.75 -5.3,-88.62 -15.9,-170.61 -10.6,-82 -22.9,-174.16 -37,-276.4 -14.2,-102.3 -27.4,-207.64 -39.7,-316.09 -12.4,-108.44 -21.2,-204.12 -26.4,-286.98 22.9,63.48 51.9,127.37 87.2,191.77 35.3,64.34 72.8,122.54 112.5,174.57 39.6,51.99 79.3,93.89 119,125.63 39.7,31.74 75.4,47.61 107.1,47.61 44.1,0 88.6,-1.32 133.6,-3.96 44.9,-2.65 85.5,-11.91 121.6,-27.78 36.2,-15.87 65.7,-41.45 88.7,-76.71 22.8,-35.29 34.3,-86.41 34.3,-153.41 0,-63.47 -8.8,-119.48 -26.4,-167.95 -17.7,-48.52 -42.3,-90.84 -74.1,-126.97 -31.7,-36.16 -68.7,-67.44 -111.1,-93.89 -42.3,-26.45 -88.2,-48.52 -137.5,-66.13 30,-52.9 60.4,-115.51 91.3,-187.8 30.8,-72.32 64.3,-146.8 100.5,-223.5 36.1,-76.7 74.9,-152.09 116.3,-226.15 41.5,-74.06 86.9,-140.59 136.3,-199.7 49.3,-59.06 102.7,-106.67 160,-142.83 57.3,-36.12 120.3,-54.23 189.1,-54.23"
         style="fill:#fcca20;fill-opacity:1;fill-rule:nonzero;stroke:none"
         id="path24" />
      <path
         d="m 16003.5,3177.32 c 5.3,15.87 11.4,26.86 18.5,33.06 7,6.16 14.1,7.93 21.1,5.29 7.1,-2.64 12.4,-7.93 15.9,-15.87 3.5,-7.93 4.4,-17.19 2.7,-27.78 -5.3,-21.15 -15.5,-54.21 -30.5,-99.18 -15,-44.97 -33.5,-95.22 -55.5,-150.77 -22.1,-55.54 -46.7,-112.87 -74.1,-171.92 -27.3,-59.1 -56,-112.87 -85.9,-161.35 -30,-48.52 -60.9,-88.19 -92.6,-119.02 -31.7,-30.88 -62.6,-46.29 -92.6,-46.29 h -5.3 c -86.4,0 -155.2,26.85 -206.3,80.67 -51.2,53.76 -89.9,119.44 -116.4,197.05 -26.4,77.57 -43.6,158.25 -51.5,242.03 -8,83.73 -11.9,156.46 -11.9,218.21 0,75.8 1.3,141.05 3.9,195.73 2.7,54.64 6.2,100.51 10.6,137.54 4.4,37.03 7.9,67.45 10.6,91.25 2.6,23.81 3.9,43.64 3.9,59.52 0,28.18 17.2,44.5 51.6,48.93 34.4,4.38 72.8,-0.45 115.1,-14.54 42.3,-14.14 80.7,-34.85 115,-62.16 34.4,-27.37 51.6,-57.79 51.6,-91.26 0,-24.71 -0.9,-52.03 -2.6,-81.99 -1.8,-30 -3.6,-61.75 -5.3,-95.23 -1.8,-33.51 -3.6,-66.57 -5.3,-99.19 -1.8,-32.64 -2.6,-63.06 -2.6,-91.25 0,-142.83 10.9,-259.21 33,-349.14 22,-89.93 44.5,-160.48 67.5,-211.6 17.6,8.8 37.4,28.18 59.5,58.18 22,29.97 44.5,64.36 67.4,103.17 22.9,38.76 45,80.21 66.2,124.31 21.1,44.06 40.5,85.96 58.1,125.64 17.6,39.68 32.2,74.47 43.7,104.48 11.4,29.96 18.9,51.12 22.5,63.48 z m -298.9,825.24 c 0,-40.57 -12.8,-68.35 -38.4,-83.31 -25.6,-15.01 -57.3,-21.16 -95.2,-18.51 -37.9,2.64 -79.3,11.89 -124.3,27.77 -45,15.87 -86.4,35.25 -124.3,58.18 -38,22.9 -69.7,47.16 -95.2,72.75 -25.6,25.53 -38.4,49.79 -38.4,72.73 0,33.48 6.6,59.06 19.8,76.71 13.3,17.61 30.9,30.42 52.9,38.35 22.1,7.94 48.1,12.31 78.1,13.22 29.9,0.87 61.7,1.33 95.2,1.33 31.7,0 63.9,-8.85 96.5,-26.45 32.6,-17.65 61.7,-39.67 87.3,-66.13 25.6,-26.45 46.3,-54.68 62.2,-84.64 15.8,-30.01 23.8,-57.32 23.8,-82"
         style="fill:#fcca20;fill-opacity:1;fill-rule:nonzero;stroke:none"
         id="path26" />
      <path
         d="m 17114.3,3706.32 c 0,-21.16 -3.6,-52.9 -10.8,-95.21 -7.1,-42.33 -15.7,-90.84 -25.6,-145.48 -9.9,-54.68 -20.7,-112.87 -32.3,-174.57 -11.7,-61.75 -22.5,-121.67 -32.4,-179.87 -9.9,-58.19 -18.4,-112.87 -25.6,-163.99 -7.2,-51.16 -10.8,-93.49 -10.8,-126.96 0,-100.51 2.8,-176.8 8.3,-228.79 5.6,-52.03 11.6,-91.26 18.1,-117.71 6.5,-26.45 12.6,-45.88 18.2,-58.19 5.5,-12.35 8.3,-28.18 8.3,-47.61 0,-19.38 -20.7,-29.1 -62.2,-29.1 -41.4,0 -87.2,15.01 -137.5,44.97 -50.3,29.96 -96.1,78.03 -137.5,144.15 -41.5,66.13 -62.2,154.74 -62.2,265.83 0,74.06 3.1,150.31 9.2,228.79 6.1,78.45 13.5,155.15 22.3,230.12 8.8,74.93 18.8,145.89 30.2,212.93 11.3,66.99 21.4,126.04 30.2,177.21 -19.4,-49.39 -41,-109.77 -64.8,-181.19 -23.8,-71.4 -48.4,-148.11 -74,-230.11 -25.5,-82 -51.1,-164.9 -76.6,-248.63 -25.6,-83.78 -50.7,-162.25 -75.4,-235.41 -24.6,-73.19 -48,-138 -70,-194.41 -22,-56.46 -41.9,-96.99 -59.5,-121.67 -1.7,-12.35 -8.8,-21.16 -21.1,-26.45 h -7.9 c -10.6,-3.55 -21.2,-5.29 -31.7,-5.29 -63.5,0 -116.4,22.48 -158.6,67.45 -42.3,44.96 -76.6,100.92 -103.1,167.96 -26.4,66.99 -45.8,140.19 -58.1,219.53 -12.4,79.36 -20.8,153.83 -25.1,223.51 -4.5,69.64 -6.2,128.7 -5.3,177.21 0.8,48.48 1.3,76.25 1.3,83.33 0,12.31 -1.3,20.7 -4,25.12 -2.6,4.39 -6.1,8.8 -10.5,13.22 -4.4,4.39 -7.9,8.81 -10.6,13.24 -2.6,4.37 -4,12.76 -4,25.12 0,12.32 20.3,22.03 60.9,29.1 40.5,7.02 85,8.35 133.6,3.96 48.4,-4.42 92.9,-16.78 133.5,-37.03 40.6,-20.29 60.9,-51.57 60.9,-93.9 0,-14.13 -0.5,-40.12 -1.4,-78.02 -0.9,-37.94 -2.2,-79.35 -3.9,-124.32 -1.8,-44.96 -3.1,-88.6 -4,-130.93 -0.9,-42.32 -1.3,-74.06 -1.3,-95.22 0,-35.3 1.3,-67.9 3.9,-97.86 2.7,-30.01 5.7,-58.2 9.3,-84.64 15.9,56.4 35.7,120.76 59.5,193.08 23.8,72.29 49.4,147.67 76.7,226.15 27.3,78.44 56.9,156.47 88.6,234.09 31.8,77.57 63.9,149.44 96.6,215.56 32.6,66.13 65.6,123 99.2,170.61 33.4,47.61 66.1,80.21 97.8,97.86 3.5,3.52 10.6,7.03 21.2,10.59 5.3,1.73 10.1,3.05 14.5,3.96 4.4,0.87 9.3,1.32 14.6,1.32 8.8,0 17.2,0 25.1,0 8,0 16.3,-0.91 25.1,-2.64 40.6,0 65.3,-4.42 74.1,-13.23 42.3,-12.35 80.7,-30.41 115.1,-54.22 34.3,-23.81 51.5,-51.58 51.5,-83.32"
         style="fill:#fcca20;fill-opacity:1;fill-rule:nonzero;stroke:none"
         id="path28" />
      <path
         d="m 17828,2409.15 c -14.6,-26.14 -23.4,-54.55 -30.2,-83.76 3.1,-21.72 5.2,-44.22 6.3,-67.7 4.2,-97.95 -4.9,-202.65 -27.3,-314.1 -22.5,-111.47 -54.8,-226.21 -97,-344.23 -42.2,-118.02 -89.8,-230.68 -142.7,-337.89 -52.9,-107.24 -108.7,-205.43 -167.3,-294.7 -58.5,-89.211 -115.1,-161.02 -169.6,-215.372 -54.5,-54.339 -104.3,-88.296 -149.4,-101.796 -45.1,-13.512 -80.5,2.847 -106.2,48.988 -23.9,42.699 -36.8,90.14 -38.9,142.269 -2.1,52.172 2.5,104.532 13.6,157.063 11.2,52.558 26.2,104.518 45.2,155.868 18.9,51.39 37.1,97.9 54.6,139.48 17.5,41.64 31.5,77.61 42.1,107.89 10.5,30.29 13,50.66 7.4,61.08 -5.6,10.42 -21,2.35 -46.1,-24.12 -25.1,-26.48 -52.7,-64.8 -82.6,-114.9 -30,-50.09 -59.7,-108.4 -89.3,-174.91 -29.6,-66.49 -53.8,-133.63 -72.4,-201.388 -18.6,-67.774 -27.5,-133.203 -26.7,-196.352 0.8,-63.109 16.3,-116.101 46.5,-158.98 28.3,-39.379 72,-95.352 131.1,-107.891 59.1,-12.551 121.2,-26.34 186.1,-21.449 65,4.941 126.5,4.961 184.6,20.059 58.2,15.171 141.6,60.91 170.4,77.25 89.9,51.043 149.5,146.48 218.9,246.429 69.4,99.973 108.7,212.382 157.9,337.342 49.2,124.94 88.1,256.65 116.7,395.09 28.5,138.45 47,271.03 55.5,397.77 8.4,126.74 6.7,242.23 -5,346.5 -9.1,80.7 -24.5,147.25 -46.2,199.99 -54.3,6.23 -112.5,-24.5 -140,-73.53"
         style="fill:#fcca20;fill-opacity:1;fill-rule:nonzero;stroke:none"
         id="path30" />
      <path
         d="m 18902.3,1976.48 c 24.7,0 48,10.57 70.1,31.74 22,21.16 41,44.97 56.8,71.41 19.5,30.01 37.1,64.4 52.9,103.16 -61.7,0 -110.1,-10.58 -145.4,-31.74 -35.3,-21.16 -59.5,-44.96 -72.8,-71.42 -13.2,-26.44 -16.3,-50.25 -9.2,-71.41 7,-21.17 22.9,-31.74 47.6,-31.74 z m 576.6,378.24 c 105.8,1.78 215.1,-2.2 328,-11.9 112.8,-9.68 222.2,-25.13 328,-46.29 105.8,-21.17 205.4,-47.16 298.9,-78.03 93.4,-30.83 174.9,-65.22 244.6,-103.16 69.7,-37.9 123.4,-79.76 161.4,-125.64 37.9,-45.83 55.1,-93.44 51.5,-142.83 -7,-77.57 -29.5,-134.45 -67.4,-170.61 -37.9,-36.11 -79.8,-52.44 -125.6,-48.92 -10.6,1.77 -32.7,15.45 -66.2,40.99 -33.5,25.58 -78.5,57.33 -134.9,95.22 -56.4,37.94 -123,79.35 -199.7,124.31 -76.7,44.98 -162.6,86.88 -257.9,125.65 -95.2,38.81 -199.2,70.99 -312.1,96.54 -112.8,25.59 -233.6,39.26 -362.3,41 -65.3,-89.93 -131,-153.41 -197.1,-190.44 -66.1,-37.03 -128.3,-55.55 -186.5,-55.55 -49.3,0 -90.3,6.2 -123,18.52 -32.6,12.35 -58.6,27.77 -78,46.29 -19.4,18.51 -33.1,38.35 -41,59.51 -7.9,21.16 -11.9,40.58 -11.9,58.19 0,21.15 8.4,48.52 25.1,81.99 16.8,33.52 54.3,65.26 112.4,95.23 31.8,21.15 75.9,37.03 132.3,47.61 35.3,10.57 73.2,18.51 113.7,23.8 12.4,38.8 24.3,81.09 35.7,126.96 11.5,45.84 21.6,96.09 30.5,150.77 12.3,72.28 23.3,164.4 33,276.41 9.7,111.95 18.5,232.3 26.5,361.04 7.9,128.69 14.9,260.54 21.1,395.43 6.2,134.89 11.9,260.08 17.2,375.6 5.3,115.46 10.2,215.56 14.6,300.2 4.4,84.65 9.2,142.83 14.5,174.57 5.3,31.75 19.9,59.93 43.7,84.65 23.8,24.67 51.1,44.96 82,60.83 30.8,15.87 63.4,26.45 97.8,31.74 34.4,5.29 65.3,3.97 92.6,-3.97 27.3,-7.93 48.5,-22.94 63.5,-44.96 15,-22.07 18.9,-53.36 11.9,-93.89 -5.3,-24.72 -9.3,-74.98 -11.9,-150.78 -2.7,-75.84 -6.2,-167.96 -10.6,-276.4 -4.4,-108.45 -9.3,-227.47 -14.5,-357.08 -5.3,-129.6 -11.5,-259.21 -18.6,-388.82 -7,-129.6 -16.3,-255.25 -27.7,-376.91 -11.5,-121.67 -25.2,-227.48 -41,-317.41 -21.2,-112.87 -52.1,-216.02 -92.6,-309.46"
         style="fill:#fcca20;fill-opacity:1;fill-rule:nonzero;stroke:none"
         id="path32" />
      <path
         d="m 20714.1,3177.32 c 5.3,15.87 11.5,26.86 18.5,33.06 7.1,6.16 14.1,7.93 21.2,5.29 7,-2.64 12.3,-7.93 15.9,-15.87 3.5,-7.93 4.3,-17.19 2.6,-27.78 -5.3,-21.15 -15.5,-54.21 -30.4,-99.18 -15,-44.97 -33.5,-95.22 -55.6,-150.77 -22,-55.54 -46.7,-112.87 -74,-171.92 -27.4,-59.1 -56,-112.87 -86,-161.35 -30,-48.52 -60.8,-88.19 -92.6,-119.02 -31.7,-30.88 -62.6,-46.29 -92.5,-46.29 h -5.3 c -86.4,0 -155.2,26.85 -206.3,80.67 -51.2,53.76 -90,119.44 -116.4,197.05 -26.5,77.57 -43.7,158.25 -51.6,242.03 -7.9,83.73 -11.9,156.46 -11.9,218.21 0,75.8 1.3,141.05 4,195.73 2.6,54.64 6.1,100.51 10.5,137.54 4.4,37.03 8,67.45 10.6,91.25 2.7,23.81 4,43.64 4,59.52 0,28.18 17.2,44.5 51.6,48.93 34.4,4.38 72.7,-0.45 115,-14.54 42.3,-14.14 80.7,-34.85 115.1,-62.16 34.4,-27.37 51.6,-57.79 51.6,-91.26 0,-24.71 -0.9,-52.03 -2.7,-81.99 -1.8,-30 -3.5,-61.75 -5.3,-95.23 -1.7,-33.51 -3.5,-66.57 -5.3,-99.19 -1.7,-32.64 -2.6,-63.06 -2.6,-91.25 0,-142.83 11,-259.21 33.1,-349.14 22,-89.93 44.5,-160.48 67.4,-211.6 17.6,8.8 37.5,28.18 59.5,58.18 22,29.97 44.5,64.36 67.5,103.17 22.9,38.76 44.9,80.21 66.1,124.31 21.2,44.06 40.5,85.96 58.2,125.64 17.6,39.68 32.1,74.47 43.6,104.48 11.5,29.96 19,51.12 22.5,63.48 z m -298.9,825.24 c 0,-40.57 -12.8,-68.35 -38.3,-83.31 -25.6,-15.01 -57.4,-21.16 -95.3,-18.51 -37.9,2.64 -79.3,11.89 -124.3,27.77 -44.9,15.87 -86.4,35.25 -124.3,58.18 -37.9,22.9 -69.7,47.16 -95.2,72.75 -25.5,25.53 -38.4,49.79 -38.4,72.73 0,33.48 6.7,59.06 19.9,76.71 13.2,17.61 30.8,30.42 52.9,38.35 22,7.94 48,12.31 78,13.22 30,0.87 61.7,1.33 95.2,1.33 31.8,0 63.9,-8.85 96.6,-26.45 32.6,-17.65 61.7,-39.67 87.3,-66.13 25.5,-26.45 46.3,-54.68 62.1,-84.64 15.9,-30.01 23.8,-57.32 23.8,-82"
         style="fill:#fcca20;fill-opacity:1;fill-rule:nonzero;stroke:none"
         id="path34" />
      <path
         d="m 21124,2526.64 c 28.2,0 55.6,27.36 82,82.16 26.5,54.81 49.4,123.74 68.8,206.81 19.4,83.07 33.9,172.79 43.7,269.13 9.6,96.3 11.9,186.02 6.6,269.09 -5.3,83.07 -19.5,152.01 -42.4,206.81 -22.9,54.8 -58.1,82.2 -105.8,82.2 -21.1,0 -36.1,-15.04 -44.9,-45.08 -8.9,-30.05 -16.8,-64.97 -23.8,-104.73 -7.1,-39.77 -15.9,-79.97 -26.5,-120.64 -10.6,-40.67 -27.3,-71.59 -50.2,-92.79 0,-79.55 -2.7,-163.53 -8,-251.89 -5.3,-88.36 -7.5,-169.7 -6.6,-243.92 0.9,-74.23 8.8,-135.64 23.8,-184.25 15,-48.6 42.8,-72.9 83.3,-72.9 z m 71.5,1277.55 c 38.7,0 74.9,-9.71 108.4,-29.1 33.5,-19.42 62.6,-51.16 87.3,-95.21 24.7,-44.11 44.5,-100.97 59.5,-170.61 15,-69.68 22.5,-154.74 22.5,-255.24 0,-100.52 -8.8,-202.35 -26.5,-305.51 -17.6,-103.16 -45.8,-196.18 -84.6,-279.04 -38.8,-82.91 -88.6,-150.36 -149.4,-202.35 -60.9,-52.03 -134.5,-78.03 -220.9,-78.03 -77.6,0 -141.5,19.84 -191.8,59.52 -50.2,39.66 -89.9,89.93 -119,150.76 -29.1,60.84 -48.9,127.83 -59.5,201.02 -10.6,73.16 -15.9,143.25 -15.9,210.28 0,61.71 3.5,125.64 10.6,191.76 7,66.13 19.4,127.38 37,183.83 17.6,56.42 42.4,104.9 74.1,145.48 31.7,40.55 71.4,66.12 119,76.71 15.9,44.05 37.1,79.35 63.5,105.8 26.5,26.45 55.5,46.29 87.3,59.51 31.7,13.23 64.8,21.57 99.2,25.13 34.4,3.52 67.4,5.29 99.2,5.29"
         style="fill:#fcca20;fill-opacity:1;fill-rule:nonzero;stroke:none"
         id="path36" />
      <path
         d="m 22853.9,3706.32 c 0,-21.16 -3.6,-52.9 -10.8,-95.21 -7.2,-42.33 -15.8,-90.84 -25.6,-145.48 -9.9,-54.68 -20.7,-112.87 -32.4,-174.57 -11.7,-61.75 -22.5,-121.67 -32.4,-179.87 -9.9,-58.19 -18.4,-112.87 -25.6,-163.99 -7.2,-51.16 -10.8,-93.49 -10.8,-126.96 0,-100.51 2.8,-176.8 8.4,-228.79 5.5,-52.03 11.6,-91.26 18.1,-117.71 6.5,-26.45 12.5,-45.88 18.1,-58.19 5.5,-12.35 8.3,-28.18 8.3,-47.61 0,-19.38 -20.7,-29.1 -62.1,-29.1 -41.5,0 -87.3,15.01 -137.6,44.97 -50.2,29.96 -96.1,78.03 -137.5,144.15 -41.5,66.13 -62.2,154.74 -62.2,265.83 0,74.06 3.1,150.31 9.2,228.79 6.1,78.45 13.6,155.15 22.3,230.12 8.8,74.93 18.8,145.89 30.2,212.93 11.4,66.99 21.5,126.04 30.2,177.21 -19.4,-49.39 -40.9,-109.77 -64.8,-181.19 -23.8,-71.4 -48.4,-148.11 -73.9,-230.11 -25.6,-82 -51.1,-164.9 -76.7,-248.63 -25.5,-83.78 -50.7,-162.25 -75.3,-235.41 -24.7,-73.19 -48.1,-138 -70,-194.41 -22.1,-56.46 -41.9,-96.99 -59.5,-121.67 -1.8,-12.35 -8.8,-21.16 -21.1,-26.45 h -8 c -10.5,-3.55 -21.1,-5.29 -31.7,-5.29 -63.4,0 -116.3,22.48 -158.6,67.45 -42.3,44.96 -76.6,100.92 -103.1,167.96 -26.4,66.99 -45.8,140.19 -58.1,219.53 -12.3,79.36 -20.7,153.83 -25.1,223.51 -4.4,69.64 -6.2,128.7 -5.3,177.21 0.9,48.48 1.3,76.25 1.3,83.33 0,12.31 -1.3,20.7 -3.9,25.12 -2.6,4.39 -6.1,8.8 -10.6,13.22 -4.3,4.39 -7.9,8.81 -10.5,13.24 -2.7,4.37 -4,12.76 -4,25.12 0,12.32 20.3,22.03 60.8,29.1 40.6,7.02 85.1,8.35 133.6,3.96 48.5,-4.42 93,-16.78 133.6,-37.03 40.5,-20.29 60.8,-51.57 60.8,-93.9 0,-14.13 -0.5,-40.12 -1.3,-78.02 -0.9,-37.94 -2.2,-79.35 -4,-124.32 -1.8,-44.96 -3.1,-88.6 -4,-130.93 -0.9,-42.32 -1.3,-74.06 -1.3,-95.22 0,-35.3 1.3,-67.9 4,-97.86 2.6,-30.01 5.7,-58.2 9.2,-84.64 15.9,56.4 35.8,120.76 59.6,193.08 23.8,72.29 49.3,147.67 76.7,226.15 27.3,78.44 56.8,156.47 88.6,234.09 31.7,77.57 63.9,149.44 96.5,215.56 32.6,66.13 65.7,123 99.2,170.61 33.5,47.61 66.1,80.21 97.9,97.86 3.5,3.52 10.5,7.03 21.1,10.59 5.3,1.73 10.2,3.05 14.6,3.96 4.4,0.87 9.2,1.32 14.5,1.32 8.8,0 17.2,0 25.2,0 7.9,0 16.2,-0.91 25.1,-2.64 40.5,0 65.2,-4.42 74,-13.23 42.4,-12.35 80.7,-30.41 115.1,-54.22 34.4,-23.81 51.6,-51.58 51.6,-83.32"
         style="fill:#fcca20;fill-opacity:1;fill-rule:nonzero;stroke:none"
         id="path38" />
      <path
         d="m 17774.6,2360.56 c 28.2,0 55.5,27.35 82,82.16 26.4,54.8 49.3,123.74 68.8,206.8 19.3,83.08 33.9,172.8 43.6,269.13 9.7,96.3 11.9,186.03 6.6,269.1 -5.3,83.06 -19.4,152.01 -42.3,206.8 -22.9,54.81 -58.2,82.21 -105.8,82.21 -21.2,0 -36.2,-15.05 -45,-45.09 -8.8,-30.05 -16.8,-64.97 -23.8,-104.73 -7,-39.76 -15.9,-79.97 -26.4,-120.64 -10.6,-40.66 -27.4,-71.58 -50.3,-92.78 0,-79.55 -2.6,-163.54 -7.9,-251.9 -5.3,-88.36 -7.5,-169.69 -6.6,-243.91 0.8,-74.23 8.8,-135.65 23.8,-184.25 14.9,-48.61 42.7,-72.9 83.3,-72.9 z m 71.4,1277.55 c 38.8,0 74.9,-9.72 108.4,-29.1 33.5,-19.43 62.6,-51.17 87.3,-95.22 24.7,-44.1 44.5,-100.97 59.5,-170.61 15,-69.67 22.5,-154.73 22.5,-255.24 0,-100.52 -8.8,-202.34 -26.4,-305.51 -17.7,-103.15 -45.9,-196.18 -84.7,-279.04 -38.8,-82.91 -88.6,-150.35 -149.4,-202.34 -60.8,-52.04 -134.5,-78.03 -220.9,-78.03 -77.6,0 -141.5,19.83 -191.7,59.51 -50.3,39.67 -90,89.93 -119.1,150.76 -29,60.84 -48.9,127.83 -59.5,201.03 -10.6,73.15 -15.8,143.24 -15.8,210.27 0,61.71 3.5,125.65 10.5,191.77 7.1,66.12 19.4,127.37 37.1,183.83 17.6,56.41 42.3,104.89 74,145.48 31.8,40.54 71.4,66.12 119.1,76.7 15.8,44.06 37,79.35 63.4,105.81 26.5,26.44 55.6,46.28 87.3,59.51 31.8,13.22 64.8,21.57 99.2,25.12 34.4,3.52 67.5,5.3 99.2,5.3"
         style="fill:#fcca20;fill-opacity:1;fill-rule:nonzero;stroke:none"
         id="path40" />
      <path
         d="m 17844.2,1781.15 c 36.6,81.05 63.9,167.12 70.8,255.76 6.8,88.63 -7.8,180.18 -50.7,258.02"
         style="fill:#fcca20;fill-opacity:1;fill-rule:nonzero;stroke:none"
         id="path42" />
      <g
         id="g44">
        <g
           id="g46"
           clip-path="url(#clipPath50)">
          <path
             d="m 4035.54,2110.32 c 0,-1063.46 -1826.85,-1876.445 -1904.77,-1910.195 -9.26,-4.668 -20.36,-6.395 -30.22,-6.395 -11.1,0 -21.16,1.727 -31.25,6.395 -76.91,33.75 -1904.237,846.735 -1904.237,1910.195 v 2597.99 c 0,41.91 34.101,76.48 76.242,76.48 1522.235,0 1858.995,662.37 1858.995,662.37 0,0 331.67,-662.37 1859.44,-662.37 42.16,0 75.8,-34.57 75.8,-76.48 z m 82.65,2872.77 c -1657.76,0 -2017.8,707.01 -2017.8,707.01 0,0 -366.1,-707.01 -2017.8978,-707.01 C 36.9023,4983.09 0,4945.38 0,4900.1 V 2080.35 C 0,926.25 1983.09,43.9805 2066.77,6.97266 2077.99,2.07422 2088.6,0 2100.52,0 c 10.79,0 22.35,2.07422 32.81,6.97266 C 2218.05,43.9805 4200.79,926.25 4200.79,2080.35 V 4900.1 c -0.17,45.28 -37,82.99 -82.6,82.99"
             style="fill:#fcca20;fill-opacity:1;fill-rule:nonzero;stroke:none"
             id="path52" />
          <path
             d="m 185.734,4813.97 987.396,99.68 644.31,302.88 277.86,252.82 243.56,-252.82 681.77,-348.69 931.24,-91.1 h 80.93 V 2006.28 L 3890.43,1490.55 3278.34,892.445 2658.21,447.809 2109.27,226.41 1474.32,548.563 435.398,1337.83 185.734,1885.53 v 2928.44"
             style="fill:#83171c;fill-opacity:1;fill-rule:nonzero;stroke:none"
             id="path54" />
          <path
             d="M 578.352,4796.87 H 804.738 L 3951.87,1993.29 3989.74,1807.63 3769.61,1351.26 3450.14,1074.73 149.496,4019.5 l 36.238,714.51"
             style="fill:#211d1d;fill-opacity:1;fill-rule:nonzero;stroke:none"
             id="path56" />
          <path
             d="m 2250.34,4420.36 c 0,0 66.24,-7.79 71.45,-59.78 5.19,-51.96 -41.56,-80.55 -67.56,-96.15 -25.99,-15.6 -5.19,-59.77 57.18,-31.18 62.35,28.59 103.91,110.45 77.94,172.81 -18.01,43.23 -82.53,96.48 -157.31,80.89 -74.81,-15.62 -57.72,-81.55 18.3,-66.59"
             style="fill:#fcca20;fill-opacity:1;fill-rule:nonzero;stroke:none"
             id="path58" />
          <path
             d="m 1928.51,4388.76 c -22.16,-9.55 -103.02,-31.97 -109.49,18.27 -7.42,57.56 61.03,50.67 61.03,50.67 52.62,0.97 93.55,39.96 93.55,39.96 8.78,-37.02 -11.7,-94.54 -45.09,-108.9 z m 406.28,255.05 c 0,0 -270.25,44.18 -322.22,-62.35 0,0 -124.73,-1.95 -167.58,-42.88 -42.88,-40.92 -46.79,-70.15 -79.92,-76 -33.12,-5.85 -200.73,3.91 -259.19,-48.73 -58.47,-52.61 -40.93,-105.23 -38.97,-132.52 1.94,-27.28 40.91,-118.87 101.32,-120.83 0,0 11.7,62.37 101.36,62.37 89.64,0 148.11,-7.79 167.6,-31.19 19.48,-23.39 31.18,-120.82 -35.08,-167.59 -66.26,-46.78 -159.81,-35.08 -171.51,0 -11.68,35.07 -90.96,38.33 -88.34,-30.86 2.59,-69.18 76.23,-118.57 155.04,-110.77 78.82,7.79 47.65,-31.18 -17.31,-51.96 -64.97,-20.8 -400.18,-219.57 -411.86,-601.52 0,0 89.64,91.57 198.78,101.32 0,0 -27.29,276.74 194.87,354.7 0,0 -394.35,-448.23 190.65,-596.35 0,0 -55.51,157.22 -45.13,305.33 10.4,148.12 174.11,379.38 381.97,405.35 0,0 -324.81,-205.29 -298.82,-407.96 25.99,-202.68 200.08,-327.41 200.08,-327.41 0,0 -15.59,100.68 153.96,340.38 169.54,239.73 175.39,307.93 167.6,547.64 0,0 50.01,-20.8 57.8,-93.55 7.8,-72.75 28.62,-254.04 -46.76,-344.96 -75.36,-90.94 -213.08,-301.42 -213.08,-301.42 0,0 320.91,-22.08 410.56,262.47 89.64,284.53 28.59,622.36 -129.92,737.97 0,0 101.36,-5.21 146.83,-71.47 45.46,-66.27 31.17,-159.84 58.46,-161.11 27.29,-1.28 122.12,559.99 -361.19,663.9"
             style="fill:#fcca20;fill-opacity:1;fill-rule:nonzero;stroke:none"
             id="path60" />
          <path
             d="m 1950.2,3112.03 c 0,0 11.6,-89.64 44.8,-120.82 0,0 -237.07,20.8 -338.41,90.95 -101.34,70.16 -127.31,166.3 -192.27,168.88 -64.96,2.58 -172.81,-90.96 -289.74,-187.08 -116.93,-96.15 -233.861,-197.49 -358.596,-205.27 -124.718,-7.79 -89.636,145.46 -159.789,155.88 -70.156,10.39 -202.695,-109.09 -161.113,-189.66 0,0 46.777,57.14 83.148,36.37 36.395,-20.76 51.969,-70.17 23.403,-80.55 -28.59,-10.4 -127.317,-12.99 -103.938,-116.92 23.379,-103.95 93.535,-114.33 127.313,-111.73 0,0 -96.129,122.11 25.996,135.11 0,0 -20.805,-208.52 176.68,-135.43 0,0 -59.735,23.69 -64.946,75.65 -5.207,52 31.188,67.56 90.938,67.56 59.754,0 88.359,-20.78 88.359,-51.97 0,-31.18 -28.605,-54.55 -28.605,-54.55 0,0 83.168,-20.78 119.54,15.59 36.38,36.37 109.13,176.69 155.9,171.48 46.78,-5.19 -28.58,-106.55 -28.58,-106.55 0,0 90.95,-5.16 122.14,36.4 31.16,41.56 59.77,119.5 93.53,114.31 33.77,-5.19 5.2,-122.09 5.2,-122.09 0,0 62.37,-5.27 103.94,51.93 41.56,57.18 31.16,111.72 75.35,109.13 44.17,-2.6 296.22,-354.65 459.93,-456.01 163.7,-101.3 483.31,-214.36 487.2,-370.28 3.89,-155.88 -255.94,-298.8 -209.17,-454.72 46.78,-155.92 291.04,-213.07 296.23,-337.8 5.19,-124.73 -111.74,-384.574 -189.7,-376.793 -77.96,7.808 -5.21,150.733 -51.98,174.133 -46.76,23.4 -226.06,-20.78 -244.25,-158.512 0,0 93.56,57.148 124.74,25.965 31.17,-31.184 44.16,-106.52 5.19,-114.301 -38.99,-7.781 -210.48,-102.656 -25.33,-200.066 0,0 -9.76,87.668 77.94,79.886 87.7,-7.808 38.99,-124.73 116.93,-152.023 77.96,-27.266 113.03,15.59 113.03,15.59 0,0 -48.71,15.594 -46.75,42.886 1.93,27.29 14.6,54.555 43.83,58.473 29.23,3.863 60.41,48.707 66.26,108.133 5.85,59.43 46.47,140.586 102.33,151.019 55.85,10.403 180.57,35.075 223.46,106.55 0,0 -81.2,-11.042 -79.26,25.99 1.95,37.04 79.92,39 118.89,70.18 38.96,31.18 103.29,105.22 116.92,148.11 0,0 -74.7,-26.03 -98.07,5.15 -23.38,31.19 155.88,171.51 119.51,280.63 0,0 -28.59,-39 -101.33,-44.16 -72.74,-5.18 -163.71,64.96 -187.09,103.96 -23.39,38.99 -54.58,103.95 33.78,174.1 88.35,70.18 161.09,122.14 168.9,155.92 7.79,33.77 18.22,75.36 36.4,67.55 18.16,-7.78 92.2,-88.36 224.71,-72.77 132.55,15.6 245.58,136.41 237.8,304.02 -7.81,167.59 -113.04,319.59 -249.47,436.54 -136.4,116.93 -358.58,283.22 -368.98,361.18 -10.39,77.96 -9.11,215.66 7.81,241.67 16.89,25.99 58.44,32.5 58.44,-9.09 0,-41.58 24.04,-256.62 146.81,-352.1 122.78,-95.48 210.48,0 216.33,37.03 0,0 -46.78,-21.42 -68.22,19.49 -21.41,40.94 7.81,370.27 -114.96,442.38 -122.78,72.11 -317.67,42.88 -337.15,-142.25 -19.49,-185.14 7.8,-359.27 168.9,-509.97 161.1,-150.7 387.17,-353.39 392.35,-519.71 5.22,-166.27 -132.51,-176.67 -192.29,-90.93 -59.74,85.74 -59.74,171.48 -122.11,244.25 -62.36,72.8 -514.47,397.57 -563.86,483.33 -49.38,85.73 -72.77,298.8 -72.77,298.8 0,0 -94.37,-15.82 -124.72,-15.55 -38.97,0.35 -110.67,6.51 -110.67,6.51 0,0 -16,-146.2 9.33,-189.08 0,0 -202.67,64.34 -226.07,150.07"
             style="fill:#fcca20;fill-opacity:1;fill-rule:nonzero;stroke:none"
             id="path62" />
          <path
             d="m 2047.66,2309.13 c 0,0 -276.73,-202.7 -253.36,-311.84 23.4,-109.11 101.34,-179.29 105.25,-245.52 3.9,-66.29 -263.1,-311.86 -376.12,-261.16 -113.04,50.66 -37.03,75.27 -21.44,81.82 15.57,6.51 32.48,141.64 -51.97,150.75 -84.47,9.05 -175.4,0 -198.78,-62.36 0,0 88.36,7.78 101.34,-18.22 12.97,-25.97 28.58,-101.3 -23.38,-103.89 -51.97,-2.63 -67.58,38.96 -98.74,33.74 -31.19,-5.18 -137.73,-109.08 -96.15,-189.66 0,0 81.19,61.04 124.06,37.64 42.88,-23.38 66.28,-40.9 52.62,-58.45 -13.63,-17.55 -68.2,-60.44 -40.9,-120.81 27.27,-60.44 81.83,-101.37 81.83,-101.37 0,0 5.85,134.48 52.62,122.78 46.76,-11.67 25.34,-48.74 25.34,-48.74 0,0 66.26,-11.67 97.44,42.92 31.19,54.56 26.25,74.04 58.92,74.04 32.68,0 174.94,27.26 194.43,-5.85 19.48,-33.12 101.99,-46.15 192.93,-14.96 0,0 -46.78,31.15 -38.97,51.96 7.79,20.78 275.42,-28.59 301.4,23.4 0,0 -142.9,54.56 -106.53,101.33 36.38,46.75 96.32,-24.38 135.12,26.03 0,0 -57.16,2.62 -57.16,101.33 0,98.74 18.2,150.7 85.74,210.48 67.56,59.77 127.34,103.95 119.53,213.09 -7.79,109.17 -365.07,271.52 -365.07,271.52"
             style="fill:#fcca20;fill-opacity:1;fill-rule:nonzero;stroke:none"
             id="path64" />
          <path
             d="m 1381.16,3705.78 c 0,0 -109.14,-5.23 -202.69,23.36 -93.55,28.61 -327.407,215.69 -322.2,288.42 5.191,72.75 8.445,107.87 51.308,111.76 42.883,3.91 16.059,118.88 -51.402,138.37 -67.461,19.49 -176.606,5.85 -184.391,-35.06 0,0 46.774,13.62 56.516,-8.79 9.722,-22.39 -9.742,-75.04 -9.742,-75.04 0,0 -56.52,74.07 -118.883,75.04 -62.371,0.97 -165.645,-121.79 -91.598,-188.07 0,0 52.606,83.83 81.836,66.28 29.246,-17.55 52.621,-74.07 21.457,-76.01 -31.183,-1.95 -62.367,5.85 -74.066,-15.59 -11.68,-21.44 -42.86,-148.11 64.328,-142.26 0,0 5.847,42.88 40.902,46.76 35.082,3.91 66.262,-15.59 76.024,-56.52 9.742,-40.91 -37.032,-99.38 -87.7,-77.94 0,0 40.926,-100.74 155.258,-126.72 114.336,-25.95 137.696,-31.18 135.117,-62.36 -2.597,-31.18 -51.968,-49.36 -67.558,-33.76 -15.59,15.59 46.777,-85.79 142.922,-98.76 96.132,-12.98 85.742,-25.96 83.152,-41.55 -2.62,-15.59 -80.578,-15.59 -80.578,-15.59 0,0 26.018,-93.52 207.888,-75.34 0,0 23.38,296.26 174.1,379.37"
             style="fill:#fcca20;fill-opacity:1;fill-rule:nonzero;stroke:none"
             id="path66" />
          <path
             d="m 3962.21,2129.26 c 0,-1023.06 -1757.48,-1805.151 -1832.44,-1837.631 -8.91,-4.496 -19.59,-6.137 -29.07,-6.137 -10.68,0 -20.36,1.641 -30.06,6.137 -74,32.48 -1831.925,814.571 -1831.925,1837.631 V 4628.6 c 0,40.32 32.808,73.57 73.348,73.57 1464.427,0 1788.397,637.22 1788.397,637.22 0,0 319.07,-637.22 1788.81,-637.22 40.55,0 72.94,-33.25 72.94,-73.57 z m 79.52,2763.69 c -1594.82,0 -1941.19,680.15 -1941.19,680.15 0,0 -352.19,-680.15 -1941.263,-680.15 -43.855,0 -79.3551,-36.29 -79.3551,-79.84 V 2100.46 C 79.9219,990.172 1987.7,141.422 2068.2,105.797 c 10.79,-4.695 21,-6.6837 32.46,-6.6837 10.39,0 21.51,1.9887 31.58,6.6837 81.49,35.625 1988.95,884.375 1988.95,1994.663 v 2712.65 c -0.17,43.55 -35.62,79.84 -79.46,79.84"
             style="fill:#211d1d;fill-opacity:1;fill-rule:nonzero;stroke:none"
             id="path68" />
          <path
             d="m 947.621,4709.82 c 0,0 -126.152,-72.39 -150.785,-200.88 -24.629,-128.49 86.598,-134.3 86.598,-134.3 0,0 186.976,15.53 309.736,67.47 0,0 141.97,55.14 127.84,-28.11 0.44,-13.08 93.74,147.6 -52.91,135.36 -310.83,-34.79 -339.909,-21.99 -339.909,-21.99 0,0 -95.933,22.72 19.43,182.45"
             style="fill:#fcca20;fill-opacity:1;fill-rule:nonzero;stroke:none"
             id="path70" />
          <path
             d="m 986.367,4560.51 c 0,0 298.863,118.16 393.373,4.11 45.9,-128.31 -161.28,-263.45 -122.66,-415.76 22.83,-28.16 55.67,-106.36 209.87,-24.13 -57.21,0.96 -120.84,62.46 -55.77,226.12 3.98,39.75 274.24,472.49 -112.75,371.69 -252.54,-74.2 -312.063,-162.03 -312.063,-162.03"
             style="fill:#fcca20;fill-opacity:1;fill-rule:nonzero;stroke:none"
             id="path72" />
        </g>
      </g>
    </g>
  </g>
</svg>
